M48
;GenerationSoftware,Autodesk,EAGLE,9.6.2*%
;CreationDate,2021-03-18T04:39:01Z*%
FMAT,2
ICI,OFF
METRIC,TZ,000.000
T4C0.350
T3C0.920
T2C1.016
T1C2.300
%
G90
M71
T1
X34935Y6130
X34935Y19270
T2
X2540Y17145
X26035Y3175
X23495Y3175
X28575Y3175
X2540Y8255
X2540Y10795
X2540Y13335
T3
X32225Y11700
X32225Y13700
X32225Y16200
X32225Y9200
T4
X18415Y21590
X20955Y9525
X4118Y12065
X5398Y12430
X24138Y12216
X23812Y14287
X27622Y15875
X25352Y14287
X30480Y9525
X14287Y16510
X11747Y15875
X18085Y3175
X8585Y3175
X5715Y16510
X17598Y13693
X9208Y13335
X11112Y5398
X15240Y20638
X15117Y10767
X20320Y8573
X20638Y16828
X6032Y13652
X9843Y19763
X13017Y12065
X13335Y15875
X14922Y14922
X9208Y11747
X7937Y18098
X5398Y5183
M30