G04 EAGLE Gerber RS-274X export*
G75*
%MOMM*%
%FSLAX34Y34*%
%LPD*%
%INSilkscreen Top*%
%IPPOS*%
%AMOC8*
5,1,8,0,0,1.08239X$1,22.5*%
G01*
%ADD10C,0.101600*%
%ADD11C,0.200000*%
%ADD12C,0.127000*%
%ADD13C,0.076200*%
%ADD14C,0.152400*%
%ADD15C,0.203200*%
%ADD16C,0.254000*%
%ADD17R,0.250000X0.250000*%


D10*
X108458Y240072D02*
X112353Y240072D01*
X109756Y243967D02*
X109756Y234230D01*
X109757Y234230D02*
X109759Y234143D01*
X109765Y234055D01*
X109775Y233969D01*
X109788Y233882D01*
X109806Y233797D01*
X109827Y233712D01*
X109852Y233628D01*
X109881Y233546D01*
X109914Y233465D01*
X109950Y233385D01*
X109989Y233307D01*
X110033Y233231D01*
X110079Y233157D01*
X110129Y233086D01*
X110182Y233016D01*
X110238Y232949D01*
X110297Y232885D01*
X110359Y232823D01*
X110423Y232764D01*
X110490Y232708D01*
X110560Y232655D01*
X110631Y232605D01*
X110705Y232559D01*
X110781Y232515D01*
X110859Y232476D01*
X110939Y232440D01*
X111020Y232407D01*
X111102Y232378D01*
X111186Y232353D01*
X111271Y232332D01*
X111356Y232314D01*
X111443Y232301D01*
X111529Y232291D01*
X111617Y232285D01*
X111704Y232283D01*
X112353Y232283D01*
X116594Y232283D02*
X116594Y240072D01*
X116269Y243318D02*
X116269Y243967D01*
X116918Y243967D01*
X116918Y243318D01*
X116269Y243318D01*
X121617Y240072D02*
X121617Y232283D01*
X121617Y240072D02*
X124863Y240072D01*
X124950Y240070D01*
X125038Y240064D01*
X125124Y240054D01*
X125211Y240041D01*
X125296Y240023D01*
X125381Y240002D01*
X125465Y239977D01*
X125547Y239948D01*
X125628Y239915D01*
X125708Y239879D01*
X125786Y239840D01*
X125862Y239796D01*
X125936Y239750D01*
X126007Y239700D01*
X126077Y239647D01*
X126144Y239591D01*
X126208Y239532D01*
X126270Y239471D01*
X126329Y239406D01*
X126385Y239339D01*
X126438Y239269D01*
X126488Y239198D01*
X126534Y239124D01*
X126578Y239048D01*
X126617Y238970D01*
X126653Y238890D01*
X126686Y238809D01*
X126715Y238727D01*
X126740Y238643D01*
X126761Y238558D01*
X126779Y238473D01*
X126792Y238386D01*
X126802Y238300D01*
X126808Y238212D01*
X126810Y238125D01*
X126810Y232283D01*
X131523Y228388D02*
X132821Y228388D01*
X136716Y240072D01*
X131523Y240072D02*
X134120Y232283D01*
X141048Y234879D02*
X141048Y237476D01*
X141049Y237476D02*
X141051Y237577D01*
X141057Y237677D01*
X141067Y237777D01*
X141080Y237877D01*
X141098Y237976D01*
X141119Y238075D01*
X141144Y238172D01*
X141173Y238269D01*
X141206Y238364D01*
X141242Y238458D01*
X141282Y238550D01*
X141325Y238641D01*
X141372Y238730D01*
X141422Y238817D01*
X141476Y238903D01*
X141533Y238986D01*
X141593Y239066D01*
X141656Y239145D01*
X141723Y239221D01*
X141792Y239294D01*
X141864Y239364D01*
X141938Y239432D01*
X142015Y239497D01*
X142095Y239558D01*
X142177Y239617D01*
X142261Y239672D01*
X142347Y239724D01*
X142435Y239773D01*
X142525Y239818D01*
X142617Y239860D01*
X142710Y239898D01*
X142805Y239932D01*
X142900Y239963D01*
X142997Y239990D01*
X143095Y240013D01*
X143194Y240033D01*
X143294Y240048D01*
X143394Y240060D01*
X143494Y240068D01*
X143595Y240072D01*
X143695Y240072D01*
X143796Y240068D01*
X143896Y240060D01*
X143996Y240048D01*
X144096Y240033D01*
X144195Y240013D01*
X144293Y239990D01*
X144390Y239963D01*
X144485Y239932D01*
X144580Y239898D01*
X144673Y239860D01*
X144765Y239818D01*
X144855Y239773D01*
X144943Y239724D01*
X145029Y239672D01*
X145113Y239617D01*
X145195Y239558D01*
X145275Y239497D01*
X145352Y239432D01*
X145426Y239364D01*
X145498Y239294D01*
X145567Y239221D01*
X145634Y239145D01*
X145697Y239066D01*
X145757Y238986D01*
X145814Y238903D01*
X145868Y238817D01*
X145918Y238730D01*
X145965Y238641D01*
X146008Y238550D01*
X146048Y238458D01*
X146084Y238364D01*
X146117Y238269D01*
X146146Y238172D01*
X146171Y238075D01*
X146192Y237976D01*
X146210Y237877D01*
X146223Y237777D01*
X146233Y237677D01*
X146239Y237577D01*
X146241Y237476D01*
X146241Y234879D01*
X146239Y234778D01*
X146233Y234678D01*
X146223Y234578D01*
X146210Y234478D01*
X146192Y234379D01*
X146171Y234280D01*
X146146Y234183D01*
X146117Y234086D01*
X146084Y233991D01*
X146048Y233897D01*
X146008Y233805D01*
X145965Y233714D01*
X145918Y233625D01*
X145868Y233538D01*
X145814Y233452D01*
X145757Y233369D01*
X145697Y233289D01*
X145634Y233210D01*
X145567Y233134D01*
X145498Y233061D01*
X145426Y232991D01*
X145352Y232923D01*
X145275Y232858D01*
X145195Y232797D01*
X145113Y232738D01*
X145029Y232683D01*
X144943Y232631D01*
X144855Y232582D01*
X144765Y232537D01*
X144673Y232495D01*
X144580Y232457D01*
X144485Y232423D01*
X144390Y232392D01*
X144293Y232365D01*
X144195Y232342D01*
X144096Y232322D01*
X143996Y232307D01*
X143896Y232295D01*
X143796Y232287D01*
X143695Y232283D01*
X143595Y232283D01*
X143494Y232287D01*
X143394Y232295D01*
X143294Y232307D01*
X143194Y232322D01*
X143095Y232342D01*
X142997Y232365D01*
X142900Y232392D01*
X142805Y232423D01*
X142710Y232457D01*
X142617Y232495D01*
X142525Y232537D01*
X142435Y232582D01*
X142347Y232631D01*
X142261Y232683D01*
X142177Y232738D01*
X142095Y232797D01*
X142015Y232858D01*
X141938Y232923D01*
X141864Y232991D01*
X141792Y233061D01*
X141723Y233134D01*
X141656Y233210D01*
X141593Y233289D01*
X141533Y233369D01*
X141476Y233452D01*
X141422Y233538D01*
X141372Y233625D01*
X141325Y233714D01*
X141282Y233805D01*
X141242Y233897D01*
X141206Y233991D01*
X141173Y234086D01*
X141144Y234183D01*
X141119Y234280D01*
X141098Y234379D01*
X141080Y234478D01*
X141067Y234578D01*
X141057Y234678D01*
X141051Y234778D01*
X141049Y234879D01*
X152843Y232283D02*
X156088Y232283D01*
X152843Y232283D02*
X152756Y232285D01*
X152668Y232291D01*
X152582Y232301D01*
X152495Y232314D01*
X152410Y232332D01*
X152325Y232353D01*
X152241Y232378D01*
X152159Y232407D01*
X152078Y232440D01*
X151998Y232476D01*
X151920Y232515D01*
X151844Y232559D01*
X151770Y232605D01*
X151699Y232655D01*
X151629Y232708D01*
X151562Y232764D01*
X151498Y232823D01*
X151436Y232885D01*
X151377Y232949D01*
X151321Y233016D01*
X151268Y233086D01*
X151218Y233157D01*
X151172Y233231D01*
X151128Y233307D01*
X151089Y233385D01*
X151053Y233465D01*
X151020Y233546D01*
X150991Y233628D01*
X150966Y233712D01*
X150945Y233797D01*
X150927Y233882D01*
X150914Y233969D01*
X150904Y234055D01*
X150898Y234143D01*
X150896Y234230D01*
X150895Y234230D02*
X150895Y238125D01*
X150896Y238125D02*
X150898Y238212D01*
X150904Y238300D01*
X150914Y238386D01*
X150927Y238473D01*
X150945Y238558D01*
X150966Y238643D01*
X150991Y238727D01*
X151020Y238809D01*
X151053Y238890D01*
X151089Y238970D01*
X151128Y239048D01*
X151172Y239124D01*
X151218Y239198D01*
X151268Y239269D01*
X151321Y239339D01*
X151377Y239406D01*
X151436Y239470D01*
X151498Y239532D01*
X151562Y239591D01*
X151629Y239647D01*
X151699Y239700D01*
X151770Y239750D01*
X151844Y239796D01*
X151920Y239840D01*
X151998Y239879D01*
X152078Y239915D01*
X152159Y239948D01*
X152241Y239977D01*
X152325Y240002D01*
X152410Y240023D01*
X152495Y240041D01*
X152582Y240054D01*
X152668Y240064D01*
X152756Y240070D01*
X152843Y240072D01*
X156088Y240072D01*
X156088Y230336D01*
X156086Y230249D01*
X156080Y230161D01*
X156070Y230075D01*
X156057Y229988D01*
X156039Y229903D01*
X156018Y229818D01*
X155993Y229734D01*
X155964Y229652D01*
X155931Y229571D01*
X155895Y229491D01*
X155856Y229413D01*
X155812Y229337D01*
X155766Y229263D01*
X155716Y229192D01*
X155663Y229122D01*
X155607Y229055D01*
X155548Y228991D01*
X155487Y228929D01*
X155422Y228870D01*
X155355Y228814D01*
X155285Y228761D01*
X155214Y228711D01*
X155140Y228665D01*
X155064Y228621D01*
X154986Y228582D01*
X154906Y228546D01*
X154825Y228513D01*
X154743Y228484D01*
X154659Y228459D01*
X154574Y228438D01*
X154489Y228420D01*
X154402Y228407D01*
X154316Y228397D01*
X154228Y228391D01*
X154141Y228389D01*
X154141Y228388D02*
X151544Y228388D01*
X160860Y232283D02*
X166053Y240072D01*
X160860Y240072D02*
X166053Y232283D01*
X170498Y232283D02*
X173744Y232283D01*
X173857Y232285D01*
X173970Y232291D01*
X174083Y232301D01*
X174196Y232315D01*
X174308Y232332D01*
X174419Y232354D01*
X174529Y232379D01*
X174639Y232409D01*
X174747Y232442D01*
X174854Y232479D01*
X174960Y232519D01*
X175064Y232564D01*
X175167Y232612D01*
X175268Y232663D01*
X175367Y232718D01*
X175464Y232776D01*
X175559Y232838D01*
X175652Y232903D01*
X175742Y232971D01*
X175830Y233042D01*
X175916Y233117D01*
X175999Y233194D01*
X176079Y233274D01*
X176156Y233357D01*
X176231Y233443D01*
X176302Y233531D01*
X176370Y233621D01*
X176435Y233714D01*
X176497Y233809D01*
X176555Y233906D01*
X176610Y234005D01*
X176661Y234106D01*
X176709Y234209D01*
X176754Y234313D01*
X176794Y234419D01*
X176831Y234526D01*
X176864Y234634D01*
X176894Y234744D01*
X176919Y234854D01*
X176941Y234965D01*
X176958Y235077D01*
X176972Y235190D01*
X176982Y235303D01*
X176988Y235416D01*
X176990Y235529D01*
X176988Y235642D01*
X176982Y235755D01*
X176972Y235868D01*
X176958Y235981D01*
X176941Y236093D01*
X176919Y236204D01*
X176894Y236314D01*
X176864Y236424D01*
X176831Y236532D01*
X176794Y236639D01*
X176754Y236745D01*
X176709Y236849D01*
X176661Y236952D01*
X176610Y237053D01*
X176555Y237152D01*
X176497Y237249D01*
X176435Y237344D01*
X176370Y237437D01*
X176302Y237527D01*
X176231Y237615D01*
X176156Y237701D01*
X176079Y237784D01*
X175999Y237864D01*
X175916Y237941D01*
X175830Y238016D01*
X175742Y238087D01*
X175652Y238155D01*
X175559Y238220D01*
X175464Y238282D01*
X175367Y238340D01*
X175268Y238395D01*
X175167Y238446D01*
X175064Y238494D01*
X174960Y238539D01*
X174854Y238579D01*
X174747Y238616D01*
X174639Y238649D01*
X174529Y238679D01*
X174419Y238704D01*
X174308Y238726D01*
X174196Y238743D01*
X174083Y238757D01*
X173970Y238767D01*
X173857Y238773D01*
X173744Y238775D01*
X174393Y243967D02*
X170498Y243967D01*
X174393Y243967D02*
X174494Y243965D01*
X174594Y243959D01*
X174694Y243949D01*
X174794Y243936D01*
X174893Y243918D01*
X174992Y243897D01*
X175089Y243872D01*
X175186Y243843D01*
X175281Y243810D01*
X175375Y243774D01*
X175467Y243734D01*
X175558Y243691D01*
X175647Y243644D01*
X175734Y243594D01*
X175820Y243540D01*
X175903Y243483D01*
X175983Y243423D01*
X176062Y243360D01*
X176138Y243293D01*
X176211Y243224D01*
X176281Y243152D01*
X176349Y243078D01*
X176414Y243001D01*
X176475Y242921D01*
X176534Y242839D01*
X176589Y242755D01*
X176641Y242669D01*
X176690Y242581D01*
X176735Y242491D01*
X176777Y242399D01*
X176815Y242306D01*
X176849Y242211D01*
X176880Y242116D01*
X176907Y242019D01*
X176930Y241921D01*
X176950Y241822D01*
X176965Y241722D01*
X176977Y241622D01*
X176985Y241522D01*
X176989Y241421D01*
X176989Y241321D01*
X176985Y241220D01*
X176977Y241120D01*
X176965Y241020D01*
X176950Y240920D01*
X176930Y240821D01*
X176907Y240723D01*
X176880Y240626D01*
X176849Y240531D01*
X176815Y240436D01*
X176777Y240343D01*
X176735Y240251D01*
X176690Y240161D01*
X176641Y240073D01*
X176589Y239987D01*
X176534Y239903D01*
X176475Y239821D01*
X176414Y239741D01*
X176349Y239664D01*
X176281Y239590D01*
X176211Y239518D01*
X176138Y239449D01*
X176062Y239382D01*
X175983Y239319D01*
X175903Y239259D01*
X175820Y239202D01*
X175734Y239148D01*
X175647Y239098D01*
X175558Y239051D01*
X175467Y239008D01*
X175375Y238968D01*
X175281Y238932D01*
X175186Y238899D01*
X175089Y238870D01*
X174992Y238845D01*
X174893Y238824D01*
X174794Y238806D01*
X174694Y238793D01*
X174594Y238783D01*
X174494Y238777D01*
X174393Y238775D01*
X174393Y238774D02*
X171796Y238774D01*
X181928Y238774D02*
X185823Y238774D01*
X185922Y238772D01*
X186022Y238766D01*
X186121Y238757D01*
X186219Y238744D01*
X186317Y238727D01*
X186415Y238706D01*
X186511Y238681D01*
X186606Y238653D01*
X186700Y238621D01*
X186793Y238586D01*
X186885Y238547D01*
X186975Y238504D01*
X187063Y238459D01*
X187150Y238409D01*
X187234Y238357D01*
X187317Y238301D01*
X187397Y238243D01*
X187475Y238181D01*
X187550Y238116D01*
X187623Y238048D01*
X187693Y237978D01*
X187761Y237905D01*
X187826Y237830D01*
X187888Y237752D01*
X187946Y237672D01*
X188002Y237589D01*
X188054Y237505D01*
X188104Y237418D01*
X188149Y237330D01*
X188192Y237240D01*
X188231Y237148D01*
X188266Y237055D01*
X188298Y236961D01*
X188326Y236866D01*
X188351Y236770D01*
X188372Y236672D01*
X188389Y236574D01*
X188402Y236476D01*
X188411Y236377D01*
X188417Y236277D01*
X188419Y236178D01*
X188419Y235529D01*
X188420Y235529D02*
X188418Y235416D01*
X188412Y235303D01*
X188402Y235190D01*
X188388Y235077D01*
X188371Y234965D01*
X188349Y234854D01*
X188324Y234744D01*
X188294Y234634D01*
X188261Y234526D01*
X188224Y234419D01*
X188184Y234313D01*
X188139Y234209D01*
X188091Y234106D01*
X188040Y234005D01*
X187985Y233906D01*
X187927Y233809D01*
X187865Y233714D01*
X187800Y233621D01*
X187732Y233531D01*
X187661Y233443D01*
X187586Y233357D01*
X187509Y233274D01*
X187429Y233194D01*
X187346Y233117D01*
X187260Y233042D01*
X187172Y232971D01*
X187082Y232903D01*
X186989Y232838D01*
X186894Y232776D01*
X186797Y232718D01*
X186698Y232663D01*
X186597Y232612D01*
X186494Y232564D01*
X186390Y232519D01*
X186284Y232479D01*
X186177Y232442D01*
X186069Y232409D01*
X185959Y232379D01*
X185849Y232354D01*
X185738Y232332D01*
X185626Y232315D01*
X185513Y232301D01*
X185400Y232291D01*
X185287Y232285D01*
X185174Y232283D01*
X185061Y232285D01*
X184948Y232291D01*
X184835Y232301D01*
X184722Y232315D01*
X184610Y232332D01*
X184499Y232354D01*
X184389Y232379D01*
X184279Y232409D01*
X184171Y232442D01*
X184064Y232479D01*
X183958Y232519D01*
X183854Y232564D01*
X183751Y232612D01*
X183650Y232663D01*
X183551Y232718D01*
X183454Y232776D01*
X183359Y232838D01*
X183266Y232903D01*
X183176Y232971D01*
X183088Y233042D01*
X183002Y233117D01*
X182919Y233194D01*
X182839Y233274D01*
X182762Y233357D01*
X182687Y233443D01*
X182616Y233531D01*
X182548Y233621D01*
X182483Y233714D01*
X182421Y233809D01*
X182363Y233906D01*
X182308Y234005D01*
X182257Y234106D01*
X182209Y234209D01*
X182164Y234313D01*
X182124Y234419D01*
X182087Y234526D01*
X182054Y234634D01*
X182024Y234744D01*
X181999Y234854D01*
X181977Y234965D01*
X181960Y235077D01*
X181946Y235190D01*
X181936Y235303D01*
X181930Y235416D01*
X181928Y235529D01*
X181928Y238774D01*
X181930Y238917D01*
X181936Y239060D01*
X181946Y239203D01*
X181960Y239345D01*
X181977Y239487D01*
X181999Y239629D01*
X182024Y239770D01*
X182054Y239910D01*
X182087Y240049D01*
X182124Y240187D01*
X182165Y240324D01*
X182209Y240460D01*
X182258Y240595D01*
X182310Y240728D01*
X182365Y240860D01*
X182425Y240990D01*
X182488Y241119D01*
X182554Y241246D01*
X182624Y241370D01*
X182697Y241493D01*
X182774Y241614D01*
X182854Y241733D01*
X182937Y241849D01*
X183023Y241964D01*
X183112Y242075D01*
X183205Y242185D01*
X183300Y242291D01*
X183399Y242395D01*
X183500Y242496D01*
X183604Y242595D01*
X183710Y242690D01*
X183820Y242783D01*
X183931Y242872D01*
X184046Y242958D01*
X184162Y243041D01*
X184281Y243121D01*
X184402Y243198D01*
X184524Y243271D01*
X184649Y243341D01*
X184776Y243407D01*
X184905Y243470D01*
X185035Y243530D01*
X185167Y243585D01*
X185300Y243637D01*
X185435Y243686D01*
X185571Y243730D01*
X185708Y243771D01*
X185846Y243808D01*
X185985Y243841D01*
X186125Y243871D01*
X186266Y243896D01*
X186408Y243918D01*
X186550Y243935D01*
X186692Y243949D01*
X186835Y243959D01*
X186978Y243965D01*
X187121Y243967D01*
X194332Y242344D02*
X194233Y242136D01*
X194140Y241926D01*
X194052Y241714D01*
X193969Y241500D01*
X193891Y241283D01*
X193818Y241065D01*
X193750Y240846D01*
X193688Y240624D01*
X193631Y240402D01*
X193579Y240178D01*
X193533Y239953D01*
X193492Y239727D01*
X193457Y239499D01*
X193427Y239272D01*
X193402Y239043D01*
X193383Y238814D01*
X193369Y238585D01*
X193361Y238355D01*
X193358Y238125D01*
X194332Y242344D02*
X194365Y242434D01*
X194401Y242523D01*
X194441Y242611D01*
X194485Y242696D01*
X194532Y242780D01*
X194582Y242862D01*
X194636Y242942D01*
X194692Y243019D01*
X194752Y243095D01*
X194815Y243168D01*
X194880Y243238D01*
X194949Y243306D01*
X195020Y243370D01*
X195093Y243432D01*
X195169Y243491D01*
X195247Y243547D01*
X195328Y243600D01*
X195410Y243649D01*
X195494Y243695D01*
X195581Y243738D01*
X195668Y243777D01*
X195758Y243813D01*
X195848Y243845D01*
X195940Y243873D01*
X196033Y243898D01*
X196127Y243919D01*
X196221Y243936D01*
X196316Y243950D01*
X196412Y243959D01*
X196508Y243965D01*
X196604Y243967D01*
X196700Y243965D01*
X196796Y243959D01*
X196892Y243950D01*
X196987Y243936D01*
X197081Y243919D01*
X197175Y243898D01*
X197268Y243873D01*
X197360Y243845D01*
X197450Y243813D01*
X197540Y243777D01*
X197627Y243738D01*
X197714Y243695D01*
X197798Y243649D01*
X197880Y243600D01*
X197961Y243547D01*
X198039Y243491D01*
X198115Y243432D01*
X198188Y243370D01*
X198259Y243306D01*
X198328Y243238D01*
X198393Y243168D01*
X198456Y243095D01*
X198516Y243019D01*
X198572Y242942D01*
X198626Y242862D01*
X198676Y242780D01*
X198723Y242696D01*
X198767Y242611D01*
X198807Y242523D01*
X198843Y242434D01*
X198876Y242344D01*
X198975Y242137D01*
X199068Y241927D01*
X199156Y241714D01*
X199239Y241500D01*
X199317Y241284D01*
X199390Y241066D01*
X199458Y240846D01*
X199520Y240625D01*
X199577Y240402D01*
X199629Y240178D01*
X199675Y239953D01*
X199716Y239727D01*
X199751Y239500D01*
X199781Y239272D01*
X199806Y239043D01*
X199825Y238814D01*
X199839Y238585D01*
X199847Y238355D01*
X199850Y238125D01*
X193358Y238125D02*
X193361Y237895D01*
X193369Y237665D01*
X193383Y237436D01*
X193402Y237207D01*
X193427Y236978D01*
X193457Y236750D01*
X193492Y236523D01*
X193533Y236297D01*
X193579Y236072D01*
X193631Y235848D01*
X193688Y235625D01*
X193750Y235404D01*
X193818Y235184D01*
X193891Y234966D01*
X193969Y234750D01*
X194052Y234536D01*
X194140Y234324D01*
X194233Y234113D01*
X194332Y233906D01*
X194365Y233816D01*
X194401Y233727D01*
X194442Y233639D01*
X194485Y233554D01*
X194532Y233470D01*
X194582Y233388D01*
X194636Y233308D01*
X194692Y233231D01*
X194752Y233155D01*
X194815Y233082D01*
X194880Y233012D01*
X194949Y232944D01*
X195020Y232880D01*
X195093Y232818D01*
X195169Y232759D01*
X195247Y232703D01*
X195328Y232650D01*
X195410Y232601D01*
X195494Y232555D01*
X195581Y232512D01*
X195668Y232473D01*
X195758Y232437D01*
X195848Y232405D01*
X195940Y232377D01*
X196033Y232352D01*
X196127Y232331D01*
X196221Y232314D01*
X196316Y232300D01*
X196412Y232291D01*
X196508Y232285D01*
X196604Y232283D01*
X198875Y233906D02*
X198974Y234113D01*
X199067Y234324D01*
X199155Y234536D01*
X199238Y234750D01*
X199316Y234966D01*
X199389Y235184D01*
X199457Y235404D01*
X199519Y235625D01*
X199576Y235848D01*
X199628Y236072D01*
X199674Y236297D01*
X199715Y236523D01*
X199750Y236750D01*
X199780Y236978D01*
X199805Y237207D01*
X199824Y237436D01*
X199838Y237665D01*
X199846Y237895D01*
X199849Y238125D01*
X198876Y233906D02*
X198843Y233816D01*
X198807Y233727D01*
X198767Y233639D01*
X198723Y233554D01*
X198676Y233470D01*
X198626Y233388D01*
X198572Y233308D01*
X198516Y233231D01*
X198456Y233155D01*
X198393Y233082D01*
X198328Y233012D01*
X198259Y232944D01*
X198188Y232880D01*
X198115Y232818D01*
X198039Y232759D01*
X197961Y232703D01*
X197880Y232650D01*
X197798Y232601D01*
X197714Y232555D01*
X197627Y232512D01*
X197540Y232473D01*
X197450Y232437D01*
X197360Y232405D01*
X197268Y232377D01*
X197175Y232352D01*
X197081Y232331D01*
X196987Y232314D01*
X196892Y232300D01*
X196796Y232291D01*
X196700Y232285D01*
X196604Y232283D01*
X194007Y234879D02*
X199200Y241371D01*
D11*
X364350Y61500D02*
X452350Y61500D01*
X452350Y192500D01*
X364350Y192500D01*
X334350Y61500D02*
X311350Y61500D01*
X311350Y192500D01*
X334350Y192500D01*
D12*
X222410Y76350D02*
X210950Y76350D01*
X210950Y190350D01*
X222410Y190350D01*
X247490Y190350D02*
X258950Y190350D01*
X258950Y76350D01*
X247490Y76350D01*
D13*
X230571Y218681D02*
X227438Y223119D01*
X230571Y218681D02*
X233704Y223119D01*
X230571Y218681D02*
X230571Y213721D01*
X237104Y221031D02*
X239715Y223119D01*
X239715Y213721D01*
X242325Y213721D02*
X237104Y213721D01*
D14*
X241300Y44450D02*
X228600Y44450D01*
X241300Y44450D02*
X247650Y38100D01*
X247650Y25400D01*
X241300Y19050D01*
X247650Y38100D02*
X254000Y44450D01*
X266700Y44450D01*
X273050Y38100D01*
X273050Y25400D01*
X266700Y19050D01*
X254000Y19050D01*
X247650Y25400D01*
X222250Y25400D02*
X222250Y38100D01*
X228600Y44450D01*
X222250Y25400D02*
X228600Y19050D01*
X241300Y19050D01*
X273050Y38100D02*
X279400Y44450D01*
X292100Y44450D01*
X298450Y38100D01*
X298450Y25400D01*
X292100Y19050D01*
X279400Y19050D01*
X273050Y25400D01*
D13*
X304419Y27630D02*
X304419Y34417D01*
X304419Y27630D02*
X304421Y27529D01*
X304427Y27428D01*
X304437Y27327D01*
X304450Y27227D01*
X304468Y27127D01*
X304489Y27028D01*
X304515Y26930D01*
X304544Y26833D01*
X304576Y26737D01*
X304613Y26643D01*
X304653Y26550D01*
X304697Y26458D01*
X304744Y26369D01*
X304795Y26281D01*
X304849Y26195D01*
X304906Y26112D01*
X304966Y26030D01*
X305030Y25952D01*
X305096Y25875D01*
X305166Y25802D01*
X305238Y25731D01*
X305313Y25663D01*
X305391Y25598D01*
X305471Y25536D01*
X305553Y25477D01*
X305638Y25421D01*
X305725Y25369D01*
X305813Y25320D01*
X305904Y25274D01*
X305996Y25233D01*
X306090Y25194D01*
X306185Y25160D01*
X306281Y25129D01*
X306379Y25102D01*
X306477Y25078D01*
X306577Y25059D01*
X306677Y25043D01*
X306777Y25031D01*
X306878Y25023D01*
X306979Y25019D01*
X307081Y25019D01*
X307182Y25023D01*
X307283Y25031D01*
X307383Y25043D01*
X307483Y25059D01*
X307583Y25078D01*
X307681Y25102D01*
X307779Y25129D01*
X307875Y25160D01*
X307970Y25194D01*
X308064Y25233D01*
X308156Y25274D01*
X308247Y25320D01*
X308335Y25369D01*
X308422Y25421D01*
X308507Y25477D01*
X308589Y25536D01*
X308669Y25598D01*
X308747Y25663D01*
X308822Y25731D01*
X308894Y25802D01*
X308964Y25875D01*
X309030Y25952D01*
X309094Y26030D01*
X309154Y26112D01*
X309211Y26195D01*
X309265Y26281D01*
X309316Y26369D01*
X309363Y26458D01*
X309407Y26550D01*
X309447Y26643D01*
X309484Y26737D01*
X309516Y26833D01*
X309545Y26930D01*
X309571Y27028D01*
X309592Y27127D01*
X309610Y27227D01*
X309623Y27327D01*
X309633Y27428D01*
X309639Y27529D01*
X309641Y27630D01*
X309640Y27630D02*
X309640Y34417D01*
X316478Y34417D02*
X313346Y25019D01*
X319611Y25019D02*
X316478Y34417D01*
X318828Y27369D02*
X314129Y27369D01*
X323374Y25019D02*
X323374Y34417D01*
X325984Y34417D01*
X326085Y34415D01*
X326186Y34409D01*
X326287Y34399D01*
X326387Y34386D01*
X326487Y34368D01*
X326586Y34347D01*
X326684Y34321D01*
X326781Y34292D01*
X326877Y34260D01*
X326971Y34223D01*
X327064Y34183D01*
X327156Y34139D01*
X327245Y34092D01*
X327333Y34041D01*
X327419Y33987D01*
X327502Y33930D01*
X327584Y33870D01*
X327662Y33806D01*
X327739Y33740D01*
X327812Y33670D01*
X327883Y33598D01*
X327951Y33523D01*
X328016Y33445D01*
X328078Y33365D01*
X328137Y33283D01*
X328193Y33198D01*
X328245Y33111D01*
X328294Y33023D01*
X328340Y32932D01*
X328381Y32840D01*
X328420Y32746D01*
X328454Y32651D01*
X328485Y32555D01*
X328512Y32457D01*
X328536Y32359D01*
X328555Y32259D01*
X328571Y32159D01*
X328583Y32059D01*
X328591Y31958D01*
X328595Y31857D01*
X328595Y31755D01*
X328591Y31654D01*
X328583Y31553D01*
X328571Y31453D01*
X328555Y31353D01*
X328536Y31253D01*
X328512Y31155D01*
X328485Y31057D01*
X328454Y30961D01*
X328420Y30866D01*
X328381Y30772D01*
X328340Y30680D01*
X328294Y30589D01*
X328245Y30500D01*
X328193Y30414D01*
X328137Y30329D01*
X328078Y30247D01*
X328016Y30167D01*
X327951Y30089D01*
X327883Y30014D01*
X327812Y29942D01*
X327739Y29872D01*
X327662Y29806D01*
X327584Y29742D01*
X327502Y29682D01*
X327419Y29625D01*
X327333Y29571D01*
X327245Y29520D01*
X327156Y29473D01*
X327064Y29429D01*
X326971Y29389D01*
X326877Y29352D01*
X326781Y29320D01*
X326684Y29291D01*
X326586Y29265D01*
X326487Y29244D01*
X326387Y29226D01*
X326287Y29213D01*
X326186Y29203D01*
X326085Y29197D01*
X325984Y29195D01*
X325984Y29196D02*
X323374Y29196D01*
X326506Y29196D02*
X328595Y25019D01*
X334461Y25019D02*
X334461Y34417D01*
X331851Y34417D02*
X337072Y34417D01*
D15*
X89350Y175000D02*
X85350Y171000D01*
X89350Y175000D02*
X177350Y175000D01*
X181350Y171000D01*
X181350Y83000D01*
X177350Y79000D01*
X89350Y79000D01*
X85350Y83000D01*
X85350Y171000D01*
D16*
X90523Y167000D02*
X90525Y167106D01*
X90531Y167211D01*
X90541Y167317D01*
X90555Y167421D01*
X90572Y167526D01*
X90594Y167629D01*
X90619Y167732D01*
X90649Y167833D01*
X90682Y167934D01*
X90718Y168033D01*
X90759Y168130D01*
X90803Y168227D01*
X90851Y168321D01*
X90902Y168414D01*
X90956Y168504D01*
X91014Y168593D01*
X91075Y168679D01*
X91140Y168763D01*
X91207Y168844D01*
X91278Y168923D01*
X91351Y168999D01*
X91427Y169072D01*
X91506Y169143D01*
X91587Y169210D01*
X91671Y169275D01*
X91757Y169336D01*
X91846Y169394D01*
X91937Y169448D01*
X92029Y169499D01*
X92123Y169547D01*
X92220Y169591D01*
X92317Y169632D01*
X92416Y169668D01*
X92517Y169701D01*
X92618Y169731D01*
X92721Y169756D01*
X92824Y169778D01*
X92929Y169795D01*
X93033Y169809D01*
X93139Y169819D01*
X93244Y169825D01*
X93350Y169827D01*
X93456Y169825D01*
X93561Y169819D01*
X93667Y169809D01*
X93771Y169795D01*
X93876Y169778D01*
X93979Y169756D01*
X94082Y169731D01*
X94183Y169701D01*
X94284Y169668D01*
X94383Y169632D01*
X94480Y169591D01*
X94577Y169547D01*
X94671Y169499D01*
X94764Y169448D01*
X94854Y169394D01*
X94943Y169336D01*
X95029Y169275D01*
X95113Y169210D01*
X95194Y169143D01*
X95273Y169072D01*
X95349Y168999D01*
X95422Y168923D01*
X95493Y168844D01*
X95560Y168763D01*
X95625Y168679D01*
X95686Y168593D01*
X95744Y168504D01*
X95798Y168413D01*
X95849Y168321D01*
X95897Y168227D01*
X95941Y168130D01*
X95982Y168033D01*
X96018Y167934D01*
X96051Y167833D01*
X96081Y167732D01*
X96106Y167629D01*
X96128Y167526D01*
X96145Y167421D01*
X96159Y167317D01*
X96169Y167211D01*
X96175Y167106D01*
X96177Y167000D01*
X96175Y166894D01*
X96169Y166789D01*
X96159Y166683D01*
X96145Y166579D01*
X96128Y166474D01*
X96106Y166371D01*
X96081Y166268D01*
X96051Y166167D01*
X96018Y166066D01*
X95982Y165967D01*
X95941Y165870D01*
X95897Y165773D01*
X95849Y165679D01*
X95798Y165586D01*
X95744Y165496D01*
X95686Y165407D01*
X95625Y165321D01*
X95560Y165237D01*
X95493Y165156D01*
X95422Y165077D01*
X95349Y165001D01*
X95273Y164928D01*
X95194Y164857D01*
X95113Y164790D01*
X95029Y164725D01*
X94943Y164664D01*
X94854Y164606D01*
X94763Y164552D01*
X94671Y164501D01*
X94577Y164453D01*
X94480Y164409D01*
X94383Y164368D01*
X94284Y164332D01*
X94183Y164299D01*
X94082Y164269D01*
X93979Y164244D01*
X93876Y164222D01*
X93771Y164205D01*
X93667Y164191D01*
X93561Y164181D01*
X93456Y164175D01*
X93350Y164173D01*
X93244Y164175D01*
X93139Y164181D01*
X93033Y164191D01*
X92929Y164205D01*
X92824Y164222D01*
X92721Y164244D01*
X92618Y164269D01*
X92517Y164299D01*
X92416Y164332D01*
X92317Y164368D01*
X92220Y164409D01*
X92123Y164453D01*
X92029Y164501D01*
X91936Y164552D01*
X91846Y164606D01*
X91757Y164664D01*
X91671Y164725D01*
X91587Y164790D01*
X91506Y164857D01*
X91427Y164928D01*
X91351Y165001D01*
X91278Y165077D01*
X91207Y165156D01*
X91140Y165237D01*
X91075Y165321D01*
X91014Y165407D01*
X90956Y165496D01*
X90902Y165587D01*
X90851Y165679D01*
X90803Y165773D01*
X90759Y165870D01*
X90718Y165967D01*
X90682Y166066D01*
X90649Y166167D01*
X90619Y166268D01*
X90594Y166371D01*
X90572Y166474D01*
X90555Y166579D01*
X90541Y166683D01*
X90531Y166789D01*
X90525Y166894D01*
X90523Y167000D01*
D13*
X126015Y199842D02*
X126015Y206629D01*
X126015Y199842D02*
X126017Y199741D01*
X126023Y199640D01*
X126033Y199539D01*
X126046Y199439D01*
X126064Y199339D01*
X126085Y199240D01*
X126111Y199142D01*
X126140Y199045D01*
X126172Y198949D01*
X126209Y198855D01*
X126249Y198762D01*
X126293Y198670D01*
X126340Y198581D01*
X126391Y198493D01*
X126445Y198407D01*
X126502Y198324D01*
X126562Y198242D01*
X126626Y198164D01*
X126692Y198087D01*
X126762Y198014D01*
X126834Y197943D01*
X126909Y197875D01*
X126987Y197810D01*
X127067Y197748D01*
X127149Y197689D01*
X127234Y197633D01*
X127321Y197581D01*
X127409Y197532D01*
X127500Y197486D01*
X127592Y197445D01*
X127686Y197406D01*
X127781Y197372D01*
X127877Y197341D01*
X127975Y197314D01*
X128073Y197290D01*
X128173Y197271D01*
X128273Y197255D01*
X128373Y197243D01*
X128474Y197235D01*
X128575Y197231D01*
X128677Y197231D01*
X128778Y197235D01*
X128879Y197243D01*
X128979Y197255D01*
X129079Y197271D01*
X129179Y197290D01*
X129277Y197314D01*
X129375Y197341D01*
X129471Y197372D01*
X129566Y197406D01*
X129660Y197445D01*
X129752Y197486D01*
X129843Y197532D01*
X129931Y197581D01*
X130018Y197633D01*
X130103Y197689D01*
X130185Y197748D01*
X130265Y197810D01*
X130343Y197875D01*
X130418Y197943D01*
X130490Y198014D01*
X130560Y198087D01*
X130626Y198164D01*
X130690Y198242D01*
X130750Y198324D01*
X130807Y198407D01*
X130861Y198493D01*
X130912Y198581D01*
X130959Y198670D01*
X131003Y198762D01*
X131043Y198855D01*
X131080Y198949D01*
X131112Y199045D01*
X131141Y199142D01*
X131167Y199240D01*
X131188Y199339D01*
X131206Y199439D01*
X131219Y199539D01*
X131229Y199640D01*
X131235Y199741D01*
X131237Y199842D01*
X131236Y199842D02*
X131236Y206629D01*
X138335Y206630D02*
X138430Y206628D01*
X138524Y206622D01*
X138618Y206613D01*
X138712Y206600D01*
X138805Y206583D01*
X138897Y206562D01*
X138989Y206537D01*
X139079Y206509D01*
X139168Y206477D01*
X139256Y206442D01*
X139342Y206403D01*
X139427Y206361D01*
X139510Y206315D01*
X139591Y206266D01*
X139670Y206214D01*
X139747Y206159D01*
X139821Y206100D01*
X139893Y206039D01*
X139963Y205975D01*
X140030Y205908D01*
X140094Y205838D01*
X140155Y205766D01*
X140214Y205692D01*
X140269Y205615D01*
X140321Y205536D01*
X140370Y205455D01*
X140416Y205372D01*
X140458Y205287D01*
X140497Y205201D01*
X140532Y205113D01*
X140564Y205024D01*
X140592Y204934D01*
X140617Y204842D01*
X140638Y204750D01*
X140655Y204657D01*
X140668Y204563D01*
X140677Y204469D01*
X140683Y204375D01*
X140685Y204280D01*
X138335Y206629D02*
X138227Y206627D01*
X138118Y206621D01*
X138010Y206611D01*
X137903Y206598D01*
X137796Y206580D01*
X137689Y206559D01*
X137584Y206534D01*
X137479Y206505D01*
X137376Y206473D01*
X137274Y206436D01*
X137173Y206396D01*
X137074Y206353D01*
X136976Y206306D01*
X136880Y206255D01*
X136786Y206201D01*
X136694Y206144D01*
X136604Y206083D01*
X136516Y206019D01*
X136431Y205953D01*
X136348Y205883D01*
X136268Y205810D01*
X136190Y205734D01*
X136115Y205656D01*
X136043Y205575D01*
X135974Y205491D01*
X135908Y205405D01*
X135845Y205317D01*
X135786Y205226D01*
X135729Y205134D01*
X135676Y205039D01*
X135627Y204943D01*
X135581Y204844D01*
X135538Y204745D01*
X135499Y204643D01*
X135464Y204541D01*
X139902Y202452D02*
X139971Y202521D01*
X140037Y202592D01*
X140101Y202665D01*
X140162Y202741D01*
X140220Y202820D01*
X140274Y202900D01*
X140326Y202983D01*
X140374Y203067D01*
X140420Y203153D01*
X140461Y203241D01*
X140500Y203331D01*
X140535Y203422D01*
X140566Y203514D01*
X140594Y203607D01*
X140618Y203701D01*
X140638Y203796D01*
X140655Y203892D01*
X140668Y203989D01*
X140677Y204086D01*
X140683Y204183D01*
X140685Y204280D01*
X139902Y202452D02*
X135464Y197231D01*
X140685Y197231D01*
D15*
X74650Y189400D02*
X30650Y189400D01*
X30650Y204900D01*
X30650Y226900D02*
X30650Y242400D01*
X74650Y242400D01*
X83650Y233400D02*
X83650Y226900D01*
X83650Y204900D02*
X83650Y198400D01*
X74650Y189400D01*
X83650Y233400D02*
X74650Y242400D01*
X79150Y206400D02*
X78911Y205864D01*
X78659Y205334D01*
X78394Y204811D01*
X78116Y204294D01*
X77825Y203784D01*
X77523Y203281D01*
X77208Y202786D01*
X76880Y202299D01*
X76541Y201820D01*
X76191Y201350D01*
X75829Y200888D01*
X75456Y200435D01*
X75072Y199991D01*
X74677Y199557D01*
X74271Y199133D01*
X73856Y198719D01*
X73430Y198315D01*
X72994Y197921D01*
X72549Y197539D01*
X72095Y197167D01*
X71632Y196807D01*
X71160Y196458D01*
X70680Y196121D01*
X70192Y195796D01*
X69696Y195482D01*
X69192Y195181D01*
X68681Y194893D01*
X68163Y194617D01*
X67639Y194353D01*
X67108Y194103D01*
X66571Y193866D01*
X66029Y193642D01*
X65481Y193431D01*
X64929Y193234D01*
X64371Y193050D01*
X63810Y192880D01*
X63244Y192724D01*
X62675Y192582D01*
X62102Y192453D01*
X61526Y192339D01*
X60948Y192239D01*
X60368Y192153D01*
X59785Y192081D01*
X59201Y192024D01*
X58616Y191981D01*
X58030Y191952D01*
X57443Y191938D01*
X56857Y191938D01*
X56270Y191952D01*
X55684Y191981D01*
X55099Y192024D01*
X54515Y192081D01*
X53932Y192153D01*
X53352Y192239D01*
X52774Y192339D01*
X52198Y192453D01*
X51625Y192582D01*
X51056Y192724D01*
X50490Y192880D01*
X49929Y193050D01*
X49371Y193234D01*
X48819Y193431D01*
X48271Y193642D01*
X47729Y193866D01*
X47192Y194103D01*
X46661Y194353D01*
X46137Y194617D01*
X45619Y194893D01*
X45108Y195181D01*
X44604Y195482D01*
X44108Y195796D01*
X43620Y196121D01*
X43140Y196458D01*
X42668Y196807D01*
X42205Y197167D01*
X41751Y197539D01*
X41306Y197921D01*
X40870Y198315D01*
X40444Y198719D01*
X40029Y199133D01*
X39623Y199557D01*
X39228Y199991D01*
X38844Y200435D01*
X38471Y200888D01*
X38109Y201350D01*
X37759Y201820D01*
X37420Y202299D01*
X37092Y202786D01*
X36777Y203281D01*
X36475Y203784D01*
X36184Y204294D01*
X35906Y204811D01*
X35641Y205334D01*
X35389Y205864D01*
X35150Y206400D01*
X35150Y225400D02*
X35389Y225936D01*
X35641Y226466D01*
X35906Y226989D01*
X36184Y227506D01*
X36475Y228016D01*
X36777Y228519D01*
X37092Y229014D01*
X37420Y229501D01*
X37759Y229980D01*
X38109Y230450D01*
X38471Y230912D01*
X38844Y231365D01*
X39228Y231809D01*
X39623Y232243D01*
X40029Y232667D01*
X40444Y233081D01*
X40870Y233485D01*
X41306Y233879D01*
X41751Y234261D01*
X42205Y234633D01*
X42668Y234993D01*
X43140Y235342D01*
X43620Y235679D01*
X44108Y236004D01*
X44604Y236318D01*
X45108Y236619D01*
X45619Y236907D01*
X46137Y237183D01*
X46661Y237447D01*
X47192Y237697D01*
X47729Y237934D01*
X48271Y238158D01*
X48819Y238369D01*
X49371Y238566D01*
X49929Y238750D01*
X50490Y238920D01*
X51056Y239076D01*
X51625Y239218D01*
X52198Y239347D01*
X52774Y239461D01*
X53352Y239561D01*
X53932Y239647D01*
X54515Y239719D01*
X55099Y239776D01*
X55684Y239819D01*
X56270Y239848D01*
X56857Y239862D01*
X57443Y239862D01*
X58030Y239848D01*
X58616Y239819D01*
X59201Y239776D01*
X59785Y239719D01*
X60368Y239647D01*
X60948Y239561D01*
X61526Y239461D01*
X62102Y239347D01*
X62675Y239218D01*
X63244Y239076D01*
X63810Y238920D01*
X64371Y238750D01*
X64929Y238566D01*
X65481Y238369D01*
X66029Y238158D01*
X66571Y237934D01*
X67108Y237697D01*
X67639Y237447D01*
X68163Y237183D01*
X68681Y236907D01*
X69192Y236619D01*
X69696Y236318D01*
X70192Y236004D01*
X70680Y235679D01*
X71160Y235342D01*
X71632Y234993D01*
X72095Y234633D01*
X72549Y234261D01*
X72994Y233879D01*
X73430Y233485D01*
X73856Y233081D01*
X74271Y232667D01*
X74677Y232243D01*
X75072Y231809D01*
X75456Y231365D01*
X75829Y230912D01*
X76191Y230450D01*
X76541Y229980D01*
X76880Y229501D01*
X77208Y229014D01*
X77523Y228519D01*
X77825Y228016D01*
X78116Y227506D01*
X78394Y226989D01*
X78659Y226466D01*
X78911Y225936D01*
X79150Y225400D01*
D13*
X56533Y176231D02*
X54444Y176231D01*
X54355Y176233D01*
X54267Y176239D01*
X54179Y176248D01*
X54091Y176261D01*
X54004Y176278D01*
X53918Y176298D01*
X53833Y176323D01*
X53748Y176350D01*
X53665Y176382D01*
X53584Y176416D01*
X53504Y176455D01*
X53426Y176496D01*
X53349Y176541D01*
X53275Y176589D01*
X53202Y176640D01*
X53132Y176694D01*
X53065Y176752D01*
X52999Y176812D01*
X52937Y176874D01*
X52877Y176940D01*
X52819Y177007D01*
X52765Y177077D01*
X52714Y177150D01*
X52666Y177224D01*
X52621Y177301D01*
X52580Y177379D01*
X52541Y177459D01*
X52507Y177540D01*
X52475Y177623D01*
X52448Y177708D01*
X52423Y177793D01*
X52403Y177879D01*
X52386Y177966D01*
X52373Y178054D01*
X52364Y178142D01*
X52358Y178230D01*
X52356Y178319D01*
X52356Y183541D01*
X52358Y183632D01*
X52364Y183723D01*
X52374Y183814D01*
X52388Y183904D01*
X52405Y183993D01*
X52427Y184081D01*
X52453Y184169D01*
X52482Y184255D01*
X52515Y184340D01*
X52552Y184423D01*
X52592Y184505D01*
X52636Y184585D01*
X52683Y184663D01*
X52734Y184739D01*
X52787Y184812D01*
X52844Y184883D01*
X52905Y184952D01*
X52968Y185017D01*
X53033Y185080D01*
X53102Y185140D01*
X53173Y185198D01*
X53246Y185251D01*
X53322Y185302D01*
X53400Y185349D01*
X53480Y185393D01*
X53562Y185433D01*
X53645Y185470D01*
X53730Y185503D01*
X53816Y185532D01*
X53904Y185558D01*
X53992Y185580D01*
X54081Y185597D01*
X54171Y185611D01*
X54262Y185621D01*
X54353Y185627D01*
X54444Y185629D01*
X56533Y185629D01*
X62090Y180408D02*
X65223Y180408D01*
X62090Y180408D02*
X62001Y180410D01*
X61913Y180416D01*
X61825Y180425D01*
X61737Y180438D01*
X61650Y180455D01*
X61564Y180475D01*
X61479Y180500D01*
X61394Y180527D01*
X61311Y180559D01*
X61230Y180593D01*
X61150Y180632D01*
X61072Y180673D01*
X60995Y180718D01*
X60921Y180766D01*
X60848Y180817D01*
X60778Y180871D01*
X60711Y180929D01*
X60645Y180989D01*
X60583Y181051D01*
X60523Y181117D01*
X60465Y181184D01*
X60411Y181254D01*
X60360Y181327D01*
X60312Y181401D01*
X60267Y181478D01*
X60226Y181556D01*
X60187Y181636D01*
X60153Y181717D01*
X60121Y181800D01*
X60094Y181885D01*
X60069Y181970D01*
X60049Y182056D01*
X60032Y182143D01*
X60019Y182231D01*
X60010Y182319D01*
X60004Y182407D01*
X60002Y182496D01*
X60002Y183018D01*
X60001Y183018D02*
X60003Y183119D01*
X60009Y183220D01*
X60019Y183321D01*
X60032Y183421D01*
X60050Y183521D01*
X60071Y183620D01*
X60097Y183718D01*
X60126Y183815D01*
X60158Y183911D01*
X60195Y184005D01*
X60235Y184098D01*
X60279Y184190D01*
X60326Y184279D01*
X60377Y184367D01*
X60431Y184453D01*
X60488Y184536D01*
X60548Y184618D01*
X60612Y184696D01*
X60678Y184773D01*
X60748Y184846D01*
X60820Y184917D01*
X60895Y184985D01*
X60973Y185050D01*
X61053Y185112D01*
X61135Y185171D01*
X61220Y185227D01*
X61307Y185279D01*
X61395Y185328D01*
X61486Y185374D01*
X61578Y185415D01*
X61672Y185454D01*
X61767Y185488D01*
X61863Y185519D01*
X61961Y185546D01*
X62059Y185570D01*
X62159Y185589D01*
X62259Y185605D01*
X62359Y185617D01*
X62460Y185625D01*
X62561Y185629D01*
X62663Y185629D01*
X62764Y185625D01*
X62865Y185617D01*
X62965Y185605D01*
X63065Y185589D01*
X63165Y185570D01*
X63263Y185546D01*
X63361Y185519D01*
X63457Y185488D01*
X63552Y185454D01*
X63646Y185415D01*
X63738Y185374D01*
X63829Y185328D01*
X63918Y185279D01*
X64004Y185227D01*
X64089Y185171D01*
X64171Y185112D01*
X64251Y185050D01*
X64329Y184985D01*
X64404Y184917D01*
X64476Y184846D01*
X64546Y184773D01*
X64612Y184696D01*
X64676Y184618D01*
X64736Y184536D01*
X64793Y184453D01*
X64847Y184367D01*
X64898Y184279D01*
X64945Y184190D01*
X64989Y184098D01*
X65029Y184005D01*
X65066Y183911D01*
X65098Y183815D01*
X65127Y183718D01*
X65153Y183620D01*
X65174Y183521D01*
X65192Y183421D01*
X65205Y183321D01*
X65215Y183220D01*
X65221Y183119D01*
X65223Y183018D01*
X65223Y180408D01*
X65221Y180282D01*
X65215Y180156D01*
X65206Y180030D01*
X65193Y179905D01*
X65175Y179780D01*
X65155Y179655D01*
X65130Y179531D01*
X65102Y179408D01*
X65070Y179286D01*
X65034Y179165D01*
X64995Y179045D01*
X64952Y178927D01*
X64905Y178810D01*
X64855Y178694D01*
X64801Y178579D01*
X64745Y178467D01*
X64684Y178356D01*
X64621Y178247D01*
X64554Y178140D01*
X64484Y178035D01*
X64410Y177932D01*
X64334Y177832D01*
X64255Y177734D01*
X64173Y177638D01*
X64087Y177545D01*
X64000Y177454D01*
X63909Y177367D01*
X63816Y177281D01*
X63720Y177199D01*
X63622Y177120D01*
X63522Y177044D01*
X63419Y176970D01*
X63314Y176900D01*
X63207Y176833D01*
X63098Y176770D01*
X62987Y176709D01*
X62875Y176653D01*
X62760Y176599D01*
X62644Y176549D01*
X62527Y176502D01*
X62409Y176459D01*
X62289Y176420D01*
X62168Y176384D01*
X62046Y176352D01*
X61923Y176324D01*
X61799Y176299D01*
X61674Y176279D01*
X61549Y176261D01*
X61424Y176248D01*
X61298Y176239D01*
X61172Y176233D01*
X61046Y176231D01*
X280219Y165631D02*
X282308Y165631D01*
X280219Y165631D02*
X280130Y165633D01*
X280042Y165639D01*
X279954Y165648D01*
X279866Y165661D01*
X279779Y165678D01*
X279693Y165698D01*
X279608Y165723D01*
X279523Y165750D01*
X279440Y165782D01*
X279359Y165816D01*
X279279Y165855D01*
X279201Y165896D01*
X279124Y165941D01*
X279050Y165989D01*
X278977Y166040D01*
X278907Y166094D01*
X278840Y166152D01*
X278774Y166212D01*
X278712Y166274D01*
X278652Y166340D01*
X278594Y166407D01*
X278540Y166477D01*
X278489Y166550D01*
X278441Y166624D01*
X278396Y166701D01*
X278355Y166779D01*
X278316Y166859D01*
X278282Y166940D01*
X278250Y167023D01*
X278223Y167108D01*
X278198Y167193D01*
X278178Y167279D01*
X278161Y167366D01*
X278148Y167454D01*
X278139Y167542D01*
X278133Y167630D01*
X278131Y167719D01*
X278131Y172941D01*
X278133Y173032D01*
X278139Y173123D01*
X278149Y173214D01*
X278163Y173304D01*
X278180Y173393D01*
X278202Y173481D01*
X278228Y173569D01*
X278257Y173655D01*
X278290Y173740D01*
X278327Y173823D01*
X278367Y173905D01*
X278411Y173985D01*
X278458Y174063D01*
X278509Y174139D01*
X278562Y174212D01*
X278619Y174283D01*
X278680Y174352D01*
X278743Y174417D01*
X278808Y174480D01*
X278877Y174540D01*
X278948Y174598D01*
X279021Y174651D01*
X279097Y174702D01*
X279175Y174749D01*
X279255Y174793D01*
X279337Y174833D01*
X279420Y174870D01*
X279505Y174903D01*
X279591Y174932D01*
X279679Y174958D01*
X279767Y174980D01*
X279856Y174997D01*
X279946Y175011D01*
X280037Y175021D01*
X280128Y175027D01*
X280219Y175029D01*
X282308Y175029D01*
X285777Y172941D02*
X288387Y175029D01*
X288387Y165631D01*
X285777Y165631D02*
X290998Y165631D01*
X294921Y165631D02*
X297531Y165631D01*
X297632Y165633D01*
X297733Y165639D01*
X297834Y165649D01*
X297934Y165662D01*
X298034Y165680D01*
X298133Y165701D01*
X298231Y165727D01*
X298328Y165756D01*
X298424Y165788D01*
X298518Y165825D01*
X298611Y165865D01*
X298703Y165909D01*
X298792Y165956D01*
X298880Y166007D01*
X298966Y166061D01*
X299049Y166118D01*
X299131Y166178D01*
X299209Y166242D01*
X299286Y166308D01*
X299359Y166378D01*
X299430Y166450D01*
X299498Y166525D01*
X299563Y166603D01*
X299625Y166683D01*
X299684Y166765D01*
X299740Y166850D01*
X299792Y166936D01*
X299841Y167025D01*
X299887Y167116D01*
X299928Y167208D01*
X299967Y167302D01*
X300001Y167397D01*
X300032Y167493D01*
X300059Y167591D01*
X300083Y167689D01*
X300102Y167789D01*
X300118Y167889D01*
X300130Y167989D01*
X300138Y168090D01*
X300142Y168191D01*
X300142Y168293D01*
X300138Y168394D01*
X300130Y168495D01*
X300118Y168595D01*
X300102Y168695D01*
X300083Y168795D01*
X300059Y168893D01*
X300032Y168991D01*
X300001Y169087D01*
X299967Y169182D01*
X299928Y169276D01*
X299887Y169368D01*
X299841Y169459D01*
X299792Y169547D01*
X299740Y169634D01*
X299684Y169719D01*
X299625Y169801D01*
X299563Y169881D01*
X299498Y169959D01*
X299430Y170034D01*
X299359Y170106D01*
X299286Y170176D01*
X299209Y170242D01*
X299131Y170306D01*
X299049Y170366D01*
X298966Y170423D01*
X298880Y170477D01*
X298792Y170528D01*
X298703Y170575D01*
X298611Y170619D01*
X298518Y170659D01*
X298424Y170696D01*
X298328Y170728D01*
X298231Y170757D01*
X298133Y170783D01*
X298034Y170804D01*
X297934Y170822D01*
X297834Y170835D01*
X297733Y170845D01*
X297632Y170851D01*
X297531Y170853D01*
X298053Y175029D02*
X294921Y175029D01*
X298053Y175029D02*
X298143Y175027D01*
X298232Y175021D01*
X298322Y175012D01*
X298411Y174998D01*
X298499Y174981D01*
X298586Y174960D01*
X298673Y174935D01*
X298758Y174906D01*
X298842Y174874D01*
X298924Y174839D01*
X299005Y174799D01*
X299084Y174757D01*
X299161Y174711D01*
X299236Y174661D01*
X299309Y174609D01*
X299380Y174553D01*
X299448Y174495D01*
X299513Y174433D01*
X299576Y174369D01*
X299636Y174302D01*
X299693Y174233D01*
X299747Y174161D01*
X299798Y174087D01*
X299846Y174011D01*
X299890Y173933D01*
X299931Y173853D01*
X299969Y173771D01*
X300003Y173688D01*
X300033Y173603D01*
X300060Y173517D01*
X300083Y173431D01*
X300102Y173343D01*
X300117Y173254D01*
X300129Y173165D01*
X300137Y173076D01*
X300141Y172986D01*
X300141Y172896D01*
X300137Y172806D01*
X300129Y172717D01*
X300117Y172628D01*
X300102Y172539D01*
X300083Y172451D01*
X300060Y172365D01*
X300033Y172279D01*
X300003Y172194D01*
X299969Y172111D01*
X299931Y172029D01*
X299890Y171949D01*
X299846Y171871D01*
X299798Y171795D01*
X299747Y171721D01*
X299693Y171649D01*
X299636Y171580D01*
X299576Y171513D01*
X299513Y171449D01*
X299448Y171387D01*
X299380Y171329D01*
X299309Y171273D01*
X299236Y171221D01*
X299161Y171171D01*
X299084Y171125D01*
X299005Y171083D01*
X298924Y171043D01*
X298842Y171008D01*
X298758Y170976D01*
X298673Y170947D01*
X298586Y170922D01*
X298499Y170901D01*
X298411Y170884D01*
X298322Y170870D01*
X298232Y170861D01*
X298143Y170855D01*
X298053Y170853D01*
X298053Y170852D02*
X295965Y170852D01*
X282308Y102131D02*
X280219Y102131D01*
X280130Y102133D01*
X280042Y102139D01*
X279954Y102148D01*
X279866Y102161D01*
X279779Y102178D01*
X279693Y102198D01*
X279608Y102223D01*
X279523Y102250D01*
X279440Y102282D01*
X279359Y102316D01*
X279279Y102355D01*
X279201Y102396D01*
X279124Y102441D01*
X279050Y102489D01*
X278977Y102540D01*
X278907Y102594D01*
X278840Y102652D01*
X278774Y102712D01*
X278712Y102774D01*
X278652Y102840D01*
X278594Y102907D01*
X278540Y102977D01*
X278489Y103050D01*
X278441Y103124D01*
X278396Y103201D01*
X278355Y103279D01*
X278316Y103359D01*
X278282Y103440D01*
X278250Y103523D01*
X278223Y103608D01*
X278198Y103693D01*
X278178Y103779D01*
X278161Y103866D01*
X278148Y103954D01*
X278139Y104042D01*
X278133Y104130D01*
X278131Y104219D01*
X278131Y109441D01*
X278133Y109532D01*
X278139Y109623D01*
X278149Y109714D01*
X278163Y109804D01*
X278180Y109893D01*
X278202Y109981D01*
X278228Y110069D01*
X278257Y110155D01*
X278290Y110240D01*
X278327Y110323D01*
X278367Y110405D01*
X278411Y110485D01*
X278458Y110563D01*
X278509Y110639D01*
X278562Y110712D01*
X278619Y110783D01*
X278680Y110852D01*
X278743Y110917D01*
X278808Y110980D01*
X278877Y111040D01*
X278948Y111098D01*
X279021Y111151D01*
X279097Y111202D01*
X279175Y111249D01*
X279255Y111293D01*
X279337Y111333D01*
X279420Y111370D01*
X279505Y111403D01*
X279591Y111432D01*
X279679Y111458D01*
X279767Y111480D01*
X279856Y111497D01*
X279946Y111511D01*
X280037Y111521D01*
X280128Y111527D01*
X280219Y111529D01*
X282308Y111529D01*
X285777Y109441D02*
X288387Y111529D01*
X288387Y102131D01*
X285777Y102131D02*
X290998Y102131D01*
X294921Y104219D02*
X297009Y111529D01*
X294921Y104219D02*
X300142Y104219D01*
X298575Y102131D02*
X298575Y106308D01*
X279781Y121031D02*
X279781Y130429D01*
X282392Y130429D01*
X282493Y130427D01*
X282594Y130421D01*
X282695Y130411D01*
X282795Y130398D01*
X282895Y130380D01*
X282994Y130359D01*
X283092Y130333D01*
X283189Y130304D01*
X283285Y130272D01*
X283379Y130235D01*
X283472Y130195D01*
X283564Y130151D01*
X283653Y130104D01*
X283741Y130053D01*
X283827Y129999D01*
X283910Y129942D01*
X283992Y129882D01*
X284070Y129818D01*
X284147Y129752D01*
X284220Y129682D01*
X284291Y129610D01*
X284359Y129535D01*
X284424Y129457D01*
X284486Y129377D01*
X284545Y129295D01*
X284601Y129210D01*
X284653Y129123D01*
X284702Y129035D01*
X284748Y128944D01*
X284789Y128852D01*
X284828Y128758D01*
X284862Y128663D01*
X284893Y128567D01*
X284920Y128469D01*
X284944Y128371D01*
X284963Y128271D01*
X284979Y128171D01*
X284991Y128071D01*
X284999Y127970D01*
X285003Y127869D01*
X285003Y127767D01*
X284999Y127666D01*
X284991Y127565D01*
X284979Y127465D01*
X284963Y127365D01*
X284944Y127265D01*
X284920Y127167D01*
X284893Y127069D01*
X284862Y126973D01*
X284828Y126878D01*
X284789Y126784D01*
X284748Y126692D01*
X284702Y126601D01*
X284653Y126512D01*
X284601Y126426D01*
X284545Y126341D01*
X284486Y126259D01*
X284424Y126179D01*
X284359Y126101D01*
X284291Y126026D01*
X284220Y125954D01*
X284147Y125884D01*
X284070Y125818D01*
X283992Y125754D01*
X283910Y125694D01*
X283827Y125637D01*
X283741Y125583D01*
X283653Y125532D01*
X283564Y125485D01*
X283472Y125441D01*
X283379Y125401D01*
X283285Y125364D01*
X283189Y125332D01*
X283092Y125303D01*
X282994Y125277D01*
X282895Y125256D01*
X282795Y125238D01*
X282695Y125225D01*
X282594Y125215D01*
X282493Y125209D01*
X282392Y125207D01*
X282392Y125208D02*
X279781Y125208D01*
X282914Y125208D02*
X285002Y121031D01*
X288868Y121031D02*
X291478Y121031D01*
X291579Y121033D01*
X291680Y121039D01*
X291781Y121049D01*
X291881Y121062D01*
X291981Y121080D01*
X292080Y121101D01*
X292178Y121127D01*
X292275Y121156D01*
X292371Y121188D01*
X292465Y121225D01*
X292558Y121265D01*
X292650Y121309D01*
X292739Y121356D01*
X292827Y121407D01*
X292913Y121461D01*
X292996Y121518D01*
X293078Y121578D01*
X293156Y121642D01*
X293233Y121708D01*
X293306Y121778D01*
X293377Y121850D01*
X293445Y121925D01*
X293510Y122003D01*
X293572Y122083D01*
X293631Y122165D01*
X293687Y122250D01*
X293739Y122336D01*
X293788Y122425D01*
X293834Y122516D01*
X293875Y122608D01*
X293914Y122702D01*
X293948Y122797D01*
X293979Y122893D01*
X294006Y122991D01*
X294030Y123089D01*
X294049Y123189D01*
X294065Y123289D01*
X294077Y123389D01*
X294085Y123490D01*
X294089Y123591D01*
X294089Y123693D01*
X294085Y123794D01*
X294077Y123895D01*
X294065Y123995D01*
X294049Y124095D01*
X294030Y124195D01*
X294006Y124293D01*
X293979Y124391D01*
X293948Y124487D01*
X293914Y124582D01*
X293875Y124676D01*
X293834Y124768D01*
X293788Y124859D01*
X293739Y124947D01*
X293687Y125034D01*
X293631Y125119D01*
X293572Y125201D01*
X293510Y125281D01*
X293445Y125359D01*
X293377Y125434D01*
X293306Y125506D01*
X293233Y125576D01*
X293156Y125642D01*
X293078Y125706D01*
X292996Y125766D01*
X292913Y125823D01*
X292827Y125877D01*
X292739Y125928D01*
X292650Y125975D01*
X292558Y126019D01*
X292465Y126059D01*
X292371Y126096D01*
X292275Y126128D01*
X292178Y126157D01*
X292080Y126183D01*
X291981Y126204D01*
X291881Y126222D01*
X291781Y126235D01*
X291680Y126245D01*
X291579Y126251D01*
X291478Y126253D01*
X292001Y130429D02*
X288868Y130429D01*
X292001Y130429D02*
X292091Y130427D01*
X292180Y130421D01*
X292270Y130412D01*
X292359Y130398D01*
X292447Y130381D01*
X292534Y130360D01*
X292621Y130335D01*
X292706Y130306D01*
X292790Y130274D01*
X292872Y130239D01*
X292953Y130199D01*
X293032Y130157D01*
X293109Y130111D01*
X293184Y130061D01*
X293257Y130009D01*
X293328Y129953D01*
X293396Y129895D01*
X293461Y129833D01*
X293524Y129769D01*
X293584Y129702D01*
X293641Y129633D01*
X293695Y129561D01*
X293746Y129487D01*
X293794Y129411D01*
X293838Y129333D01*
X293879Y129253D01*
X293917Y129171D01*
X293951Y129088D01*
X293981Y129003D01*
X294008Y128917D01*
X294031Y128831D01*
X294050Y128743D01*
X294065Y128654D01*
X294077Y128565D01*
X294085Y128476D01*
X294089Y128386D01*
X294089Y128296D01*
X294085Y128206D01*
X294077Y128117D01*
X294065Y128028D01*
X294050Y127939D01*
X294031Y127851D01*
X294008Y127765D01*
X293981Y127679D01*
X293951Y127594D01*
X293917Y127511D01*
X293879Y127429D01*
X293838Y127349D01*
X293794Y127271D01*
X293746Y127195D01*
X293695Y127121D01*
X293641Y127049D01*
X293584Y126980D01*
X293524Y126913D01*
X293461Y126849D01*
X293396Y126787D01*
X293328Y126729D01*
X293257Y126673D01*
X293184Y126621D01*
X293109Y126571D01*
X293032Y126525D01*
X292953Y126483D01*
X292872Y126443D01*
X292790Y126408D01*
X292706Y126376D01*
X292621Y126347D01*
X292534Y126322D01*
X292447Y126301D01*
X292359Y126284D01*
X292270Y126270D01*
X292180Y126261D01*
X292091Y126255D01*
X292001Y126253D01*
X292001Y126252D02*
X289912Y126252D01*
X279781Y146431D02*
X279781Y155829D01*
X282392Y155829D01*
X282493Y155827D01*
X282594Y155821D01*
X282695Y155811D01*
X282795Y155798D01*
X282895Y155780D01*
X282994Y155759D01*
X283092Y155733D01*
X283189Y155704D01*
X283285Y155672D01*
X283379Y155635D01*
X283472Y155595D01*
X283564Y155551D01*
X283653Y155504D01*
X283741Y155453D01*
X283827Y155399D01*
X283910Y155342D01*
X283992Y155282D01*
X284070Y155218D01*
X284147Y155152D01*
X284220Y155082D01*
X284291Y155010D01*
X284359Y154935D01*
X284424Y154857D01*
X284486Y154777D01*
X284545Y154695D01*
X284601Y154610D01*
X284653Y154523D01*
X284702Y154435D01*
X284748Y154344D01*
X284789Y154252D01*
X284828Y154158D01*
X284862Y154063D01*
X284893Y153967D01*
X284920Y153869D01*
X284944Y153771D01*
X284963Y153671D01*
X284979Y153571D01*
X284991Y153471D01*
X284999Y153370D01*
X285003Y153269D01*
X285003Y153167D01*
X284999Y153066D01*
X284991Y152965D01*
X284979Y152865D01*
X284963Y152765D01*
X284944Y152665D01*
X284920Y152567D01*
X284893Y152469D01*
X284862Y152373D01*
X284828Y152278D01*
X284789Y152184D01*
X284748Y152092D01*
X284702Y152001D01*
X284653Y151912D01*
X284601Y151826D01*
X284545Y151741D01*
X284486Y151659D01*
X284424Y151579D01*
X284359Y151501D01*
X284291Y151426D01*
X284220Y151354D01*
X284147Y151284D01*
X284070Y151218D01*
X283992Y151154D01*
X283910Y151094D01*
X283827Y151037D01*
X283741Y150983D01*
X283653Y150932D01*
X283564Y150885D01*
X283472Y150841D01*
X283379Y150801D01*
X283285Y150764D01*
X283189Y150732D01*
X283092Y150703D01*
X282994Y150677D01*
X282895Y150656D01*
X282795Y150638D01*
X282695Y150625D01*
X282594Y150615D01*
X282493Y150609D01*
X282392Y150607D01*
X282392Y150608D02*
X279781Y150608D01*
X282914Y150608D02*
X285002Y146431D01*
X288868Y148519D02*
X290956Y155829D01*
X288868Y148519D02*
X294089Y148519D01*
X292523Y150608D02*
X292523Y146431D01*
D12*
X76350Y55750D02*
X76350Y44290D01*
X76350Y55750D02*
X190350Y55750D01*
X190350Y44290D01*
X190350Y19210D02*
X190350Y7750D01*
X76350Y7750D01*
X76350Y19210D01*
D13*
X40207Y32666D02*
X37075Y37104D01*
X40207Y32666D02*
X43340Y37104D01*
X40207Y32666D02*
X40207Y27706D01*
X49612Y37104D02*
X49707Y37102D01*
X49801Y37096D01*
X49895Y37087D01*
X49989Y37074D01*
X50082Y37057D01*
X50174Y37036D01*
X50266Y37011D01*
X50356Y36983D01*
X50445Y36951D01*
X50533Y36916D01*
X50619Y36877D01*
X50704Y36835D01*
X50787Y36789D01*
X50868Y36740D01*
X50947Y36688D01*
X51024Y36633D01*
X51098Y36574D01*
X51170Y36513D01*
X51240Y36449D01*
X51307Y36382D01*
X51371Y36312D01*
X51432Y36240D01*
X51491Y36166D01*
X51546Y36089D01*
X51598Y36010D01*
X51647Y35929D01*
X51693Y35846D01*
X51735Y35761D01*
X51774Y35675D01*
X51809Y35587D01*
X51841Y35498D01*
X51869Y35408D01*
X51894Y35316D01*
X51915Y35224D01*
X51932Y35131D01*
X51945Y35037D01*
X51954Y34943D01*
X51960Y34849D01*
X51962Y34754D01*
X49612Y37103D02*
X49504Y37101D01*
X49395Y37095D01*
X49287Y37085D01*
X49180Y37072D01*
X49073Y37054D01*
X48966Y37033D01*
X48861Y37008D01*
X48756Y36979D01*
X48653Y36947D01*
X48551Y36910D01*
X48450Y36870D01*
X48351Y36827D01*
X48253Y36780D01*
X48157Y36729D01*
X48063Y36675D01*
X47971Y36618D01*
X47881Y36557D01*
X47793Y36493D01*
X47708Y36427D01*
X47625Y36357D01*
X47545Y36284D01*
X47467Y36208D01*
X47392Y36130D01*
X47320Y36049D01*
X47251Y35965D01*
X47185Y35879D01*
X47122Y35791D01*
X47063Y35700D01*
X47006Y35608D01*
X46953Y35513D01*
X46904Y35417D01*
X46858Y35318D01*
X46815Y35219D01*
X46776Y35117D01*
X46741Y35015D01*
X51179Y32926D02*
X51248Y32995D01*
X51314Y33066D01*
X51378Y33139D01*
X51439Y33215D01*
X51497Y33294D01*
X51551Y33374D01*
X51603Y33457D01*
X51651Y33541D01*
X51697Y33627D01*
X51738Y33715D01*
X51777Y33805D01*
X51812Y33896D01*
X51843Y33988D01*
X51871Y34081D01*
X51895Y34175D01*
X51915Y34270D01*
X51932Y34366D01*
X51945Y34463D01*
X51954Y34560D01*
X51960Y34657D01*
X51962Y34754D01*
X51179Y32927D02*
X46741Y27706D01*
X51962Y27706D01*
D17*
X292100Y68600D03*
D13*
X298831Y57854D02*
X306197Y57854D01*
X306197Y61128D01*
X306197Y64194D02*
X306197Y67467D01*
X306197Y64194D02*
X298831Y64194D01*
X298831Y67467D01*
X302105Y66649D02*
X302105Y64194D01*
X298831Y70518D02*
X306197Y70518D01*
X298831Y70518D02*
X298831Y72564D01*
X298833Y72653D01*
X298839Y72742D01*
X298849Y72831D01*
X298862Y72919D01*
X298879Y73007D01*
X298901Y73094D01*
X298926Y73179D01*
X298954Y73264D01*
X298987Y73347D01*
X299023Y73429D01*
X299062Y73509D01*
X299105Y73587D01*
X299151Y73663D01*
X299201Y73738D01*
X299254Y73810D01*
X299310Y73879D01*
X299369Y73946D01*
X299430Y74011D01*
X299495Y74072D01*
X299562Y74131D01*
X299631Y74187D01*
X299703Y74240D01*
X299778Y74290D01*
X299854Y74336D01*
X299932Y74379D01*
X300012Y74418D01*
X300094Y74454D01*
X300177Y74487D01*
X300262Y74515D01*
X300347Y74540D01*
X300434Y74562D01*
X300522Y74579D01*
X300610Y74592D01*
X300699Y74602D01*
X300788Y74608D01*
X300877Y74610D01*
X304151Y74610D01*
X304240Y74608D01*
X304329Y74602D01*
X304418Y74592D01*
X304506Y74579D01*
X304594Y74562D01*
X304681Y74540D01*
X304766Y74515D01*
X304851Y74487D01*
X304934Y74454D01*
X305016Y74418D01*
X305096Y74379D01*
X305174Y74336D01*
X305250Y74290D01*
X305325Y74240D01*
X305397Y74187D01*
X305466Y74131D01*
X305533Y74072D01*
X305598Y74011D01*
X305659Y73946D01*
X305718Y73879D01*
X305774Y73810D01*
X305827Y73738D01*
X305877Y73663D01*
X305923Y73587D01*
X305966Y73509D01*
X306005Y73429D01*
X306041Y73347D01*
X306074Y73264D01*
X306102Y73179D01*
X306127Y73094D01*
X306149Y73007D01*
X306166Y72919D01*
X306179Y72831D01*
X306189Y72742D01*
X306195Y72653D01*
X306197Y72564D01*
X306197Y70518D01*
X300468Y78077D02*
X298831Y80123D01*
X306197Y80123D01*
X306197Y78077D02*
X306197Y82169D01*
X266954Y64686D02*
X257556Y64686D01*
X257556Y67297D01*
X257558Y67398D01*
X257564Y67499D01*
X257574Y67600D01*
X257587Y67700D01*
X257605Y67800D01*
X257626Y67899D01*
X257652Y67997D01*
X257681Y68094D01*
X257713Y68190D01*
X257750Y68284D01*
X257790Y68377D01*
X257834Y68469D01*
X257881Y68558D01*
X257932Y68646D01*
X257986Y68732D01*
X258043Y68815D01*
X258103Y68897D01*
X258167Y68975D01*
X258233Y69052D01*
X258303Y69125D01*
X258375Y69196D01*
X258450Y69264D01*
X258528Y69329D01*
X258608Y69391D01*
X258690Y69450D01*
X258775Y69506D01*
X258862Y69558D01*
X258950Y69607D01*
X259041Y69653D01*
X259133Y69694D01*
X259227Y69733D01*
X259322Y69767D01*
X259418Y69798D01*
X259516Y69825D01*
X259614Y69849D01*
X259714Y69868D01*
X259814Y69884D01*
X259914Y69896D01*
X260015Y69904D01*
X260116Y69908D01*
X260218Y69908D01*
X260319Y69904D01*
X260420Y69896D01*
X260520Y69884D01*
X260620Y69868D01*
X260720Y69849D01*
X260818Y69825D01*
X260916Y69798D01*
X261012Y69767D01*
X261107Y69733D01*
X261201Y69694D01*
X261293Y69653D01*
X261384Y69607D01*
X261473Y69558D01*
X261559Y69506D01*
X261644Y69450D01*
X261726Y69391D01*
X261806Y69329D01*
X261884Y69264D01*
X261959Y69196D01*
X262031Y69125D01*
X262101Y69052D01*
X262167Y68975D01*
X262231Y68897D01*
X262291Y68815D01*
X262348Y68732D01*
X262402Y68646D01*
X262453Y68558D01*
X262500Y68469D01*
X262544Y68377D01*
X262584Y68284D01*
X262621Y68190D01*
X262653Y68094D01*
X262682Y67997D01*
X262708Y67899D01*
X262729Y67800D01*
X262747Y67700D01*
X262760Y67600D01*
X262770Y67499D01*
X262776Y67398D01*
X262778Y67297D01*
X262777Y67297D02*
X262777Y64686D01*
X262777Y67819D02*
X266954Y69907D01*
X259644Y73773D02*
X257556Y76383D01*
X266954Y76383D01*
X266954Y73773D02*
X266954Y78994D01*
D14*
X12700Y76200D02*
X12700Y88900D01*
X19050Y95250D01*
X31750Y95250D01*
X38100Y88900D01*
X19050Y95250D02*
X12700Y101600D01*
X12700Y114300D01*
X19050Y120650D01*
X31750Y120650D01*
X38100Y114300D01*
X38100Y101600D01*
X31750Y95250D01*
X31750Y69850D02*
X19050Y69850D01*
X12700Y76200D01*
X31750Y69850D02*
X38100Y76200D01*
X38100Y88900D01*
X19050Y120650D02*
X12700Y127000D01*
X12700Y139700D01*
X19050Y146050D01*
X31750Y146050D01*
X38100Y139700D01*
X38100Y127000D01*
X31750Y120650D01*
X31750Y184150D02*
X19050Y184150D01*
X31750Y184150D02*
X38100Y177800D01*
X38100Y165100D01*
X31750Y158750D01*
X12700Y165100D02*
X12700Y177800D01*
X19050Y184150D01*
X12700Y165100D02*
X19050Y158750D01*
X31750Y158750D01*
M02*
