G04 EAGLE Gerber RS-274X export*
G75*
%MOMM*%
%FSLAX34Y34*%
%LPD*%
%INSilkscreen Bottom*%
%IPPOS*%
%AMOC8*
5,1,8,0,0,1.08239X$1,22.5*%
G01*
%ADD10C,0.076200*%
%ADD11C,0.500000*%
%ADD12C,0.120000*%
%ADD13C,0.152400*%
%ADD14C,0.203200*%

G36*
X113420Y68330D02*
X113420Y68330D01*
X113422Y68332D01*
X113423Y68331D01*
X114094Y68566D01*
X114095Y68567D01*
X114096Y68567D01*
X114698Y68945D01*
X114699Y68947D01*
X114701Y68947D01*
X115203Y69449D01*
X115203Y69451D01*
X115205Y69452D01*
X115583Y70054D01*
X115583Y70055D01*
X115584Y70056D01*
X115819Y70727D01*
X115819Y70729D01*
X115820Y70730D01*
X115854Y71030D01*
X115854Y71031D01*
X115855Y71042D01*
X115891Y71365D01*
X115893Y71377D01*
X115899Y71436D01*
X115899Y71437D01*
X115898Y71438D01*
X115899Y71439D01*
X115820Y72145D01*
X115818Y72147D01*
X115819Y72148D01*
X115584Y72819D01*
X115583Y72820D01*
X115583Y72821D01*
X115205Y73423D01*
X115203Y73424D01*
X115203Y73426D01*
X114701Y73928D01*
X114699Y73928D01*
X114698Y73930D01*
X114096Y74308D01*
X114095Y74308D01*
X114094Y74309D01*
X113423Y74544D01*
X113421Y74544D01*
X113420Y74545D01*
X112714Y74624D01*
X112712Y74623D01*
X112711Y74624D01*
X112005Y74545D01*
X112003Y74543D01*
X112002Y74544D01*
X111331Y74309D01*
X111330Y74308D01*
X111329Y74308D01*
X110727Y73930D01*
X110726Y73928D01*
X110724Y73928D01*
X110222Y73426D01*
X110222Y73424D01*
X110220Y73423D01*
X109842Y72821D01*
X109842Y72820D01*
X109841Y72819D01*
X109606Y72148D01*
X109607Y72146D01*
X109605Y72145D01*
X109592Y72024D01*
X109590Y72012D01*
X109554Y71690D01*
X109553Y71678D01*
X109526Y71439D01*
X109527Y71437D01*
X109526Y71436D01*
X109605Y70730D01*
X109607Y70728D01*
X109606Y70727D01*
X109841Y70056D01*
X109842Y70055D01*
X109842Y70054D01*
X110220Y69452D01*
X110222Y69451D01*
X110222Y69449D01*
X110724Y68947D01*
X110726Y68947D01*
X110727Y68945D01*
X111329Y68567D01*
X111330Y68567D01*
X111331Y68566D01*
X112002Y68331D01*
X112004Y68332D01*
X112005Y68330D01*
X112711Y68251D01*
X112713Y68252D01*
X112714Y68251D01*
X113420Y68330D01*
G37*
D10*
X48006Y28956D02*
X57404Y28956D01*
X57404Y31567D01*
X57402Y31668D01*
X57396Y31769D01*
X57386Y31870D01*
X57373Y31970D01*
X57355Y32070D01*
X57334Y32169D01*
X57308Y32267D01*
X57279Y32364D01*
X57247Y32460D01*
X57210Y32554D01*
X57170Y32647D01*
X57126Y32739D01*
X57079Y32828D01*
X57028Y32916D01*
X56974Y33002D01*
X56917Y33085D01*
X56857Y33167D01*
X56793Y33245D01*
X56727Y33322D01*
X56657Y33395D01*
X56585Y33466D01*
X56510Y33534D01*
X56432Y33599D01*
X56352Y33661D01*
X56270Y33720D01*
X56185Y33776D01*
X56099Y33828D01*
X56010Y33877D01*
X55919Y33923D01*
X55827Y33964D01*
X55733Y34003D01*
X55638Y34037D01*
X55542Y34068D01*
X55444Y34095D01*
X55346Y34119D01*
X55246Y34138D01*
X55146Y34154D01*
X55046Y34166D01*
X54945Y34174D01*
X54844Y34178D01*
X54742Y34178D01*
X54641Y34174D01*
X54540Y34166D01*
X54440Y34154D01*
X54340Y34138D01*
X54240Y34119D01*
X54142Y34095D01*
X54044Y34068D01*
X53948Y34037D01*
X53853Y34003D01*
X53759Y33964D01*
X53667Y33923D01*
X53576Y33877D01*
X53488Y33828D01*
X53401Y33776D01*
X53316Y33720D01*
X53234Y33661D01*
X53154Y33599D01*
X53076Y33534D01*
X53001Y33466D01*
X52929Y33395D01*
X52859Y33322D01*
X52793Y33245D01*
X52729Y33167D01*
X52669Y33085D01*
X52612Y33002D01*
X52558Y32916D01*
X52507Y32828D01*
X52460Y32739D01*
X52416Y32647D01*
X52376Y32554D01*
X52339Y32460D01*
X52307Y32364D01*
X52278Y32267D01*
X52252Y32169D01*
X52231Y32070D01*
X52213Y31970D01*
X52200Y31870D01*
X52190Y31769D01*
X52184Y31668D01*
X52182Y31567D01*
X52183Y31567D02*
X52183Y28956D01*
X52183Y32089D02*
X48006Y34177D01*
X55055Y43265D02*
X55150Y43263D01*
X55244Y43257D01*
X55338Y43248D01*
X55432Y43235D01*
X55525Y43218D01*
X55617Y43197D01*
X55709Y43172D01*
X55799Y43144D01*
X55888Y43112D01*
X55976Y43077D01*
X56062Y43038D01*
X56147Y42996D01*
X56230Y42950D01*
X56311Y42901D01*
X56390Y42849D01*
X56467Y42794D01*
X56541Y42735D01*
X56613Y42674D01*
X56683Y42610D01*
X56750Y42543D01*
X56814Y42473D01*
X56875Y42401D01*
X56934Y42327D01*
X56989Y42250D01*
X57041Y42171D01*
X57090Y42090D01*
X57136Y42007D01*
X57178Y41922D01*
X57217Y41836D01*
X57252Y41748D01*
X57284Y41659D01*
X57312Y41569D01*
X57337Y41477D01*
X57358Y41385D01*
X57375Y41292D01*
X57388Y41198D01*
X57397Y41104D01*
X57403Y41010D01*
X57405Y40915D01*
X57404Y40915D02*
X57402Y40807D01*
X57396Y40698D01*
X57386Y40590D01*
X57373Y40483D01*
X57355Y40376D01*
X57334Y40269D01*
X57309Y40164D01*
X57280Y40059D01*
X57248Y39956D01*
X57211Y39854D01*
X57171Y39753D01*
X57128Y39654D01*
X57081Y39556D01*
X57030Y39460D01*
X56976Y39366D01*
X56919Y39274D01*
X56858Y39184D01*
X56794Y39096D01*
X56728Y39011D01*
X56658Y38928D01*
X56585Y38848D01*
X56509Y38770D01*
X56431Y38695D01*
X56350Y38623D01*
X56266Y38554D01*
X56180Y38488D01*
X56092Y38425D01*
X56001Y38366D01*
X55909Y38309D01*
X55814Y38256D01*
X55718Y38207D01*
X55619Y38161D01*
X55520Y38118D01*
X55418Y38079D01*
X55316Y38044D01*
X53227Y42481D02*
X53296Y42550D01*
X53367Y42616D01*
X53440Y42680D01*
X53516Y42741D01*
X53595Y42799D01*
X53675Y42853D01*
X53758Y42905D01*
X53842Y42953D01*
X53928Y42999D01*
X54016Y43040D01*
X54106Y43079D01*
X54197Y43114D01*
X54289Y43145D01*
X54382Y43173D01*
X54476Y43197D01*
X54571Y43217D01*
X54667Y43234D01*
X54764Y43247D01*
X54861Y43256D01*
X54958Y43262D01*
X55055Y43264D01*
X53227Y42481D02*
X48006Y38043D01*
X48006Y43264D01*
X199631Y226244D02*
X199631Y228333D01*
X199631Y226244D02*
X199633Y226155D01*
X199639Y226067D01*
X199648Y225979D01*
X199661Y225891D01*
X199678Y225804D01*
X199698Y225718D01*
X199723Y225633D01*
X199750Y225548D01*
X199782Y225465D01*
X199816Y225384D01*
X199855Y225304D01*
X199896Y225226D01*
X199941Y225149D01*
X199989Y225075D01*
X200040Y225002D01*
X200094Y224932D01*
X200152Y224865D01*
X200212Y224799D01*
X200274Y224737D01*
X200340Y224677D01*
X200407Y224619D01*
X200477Y224565D01*
X200550Y224514D01*
X200624Y224466D01*
X200701Y224421D01*
X200779Y224380D01*
X200859Y224341D01*
X200940Y224307D01*
X201023Y224275D01*
X201108Y224248D01*
X201193Y224223D01*
X201279Y224203D01*
X201366Y224186D01*
X201454Y224173D01*
X201542Y224164D01*
X201630Y224158D01*
X201719Y224156D01*
X206941Y224156D01*
X207032Y224158D01*
X207123Y224164D01*
X207214Y224174D01*
X207304Y224188D01*
X207393Y224205D01*
X207481Y224227D01*
X207569Y224253D01*
X207655Y224282D01*
X207740Y224315D01*
X207823Y224352D01*
X207905Y224392D01*
X207985Y224436D01*
X208063Y224483D01*
X208139Y224534D01*
X208212Y224587D01*
X208283Y224644D01*
X208352Y224705D01*
X208417Y224768D01*
X208480Y224833D01*
X208540Y224902D01*
X208598Y224973D01*
X208651Y225046D01*
X208702Y225122D01*
X208749Y225200D01*
X208793Y225280D01*
X208833Y225362D01*
X208870Y225445D01*
X208903Y225530D01*
X208932Y225616D01*
X208958Y225704D01*
X208980Y225792D01*
X208997Y225881D01*
X209011Y225971D01*
X209021Y226062D01*
X209027Y226153D01*
X209029Y226244D01*
X209029Y228333D01*
X199631Y231802D02*
X199631Y234412D01*
X199633Y234513D01*
X199639Y234614D01*
X199649Y234715D01*
X199662Y234815D01*
X199680Y234915D01*
X199701Y235014D01*
X199727Y235112D01*
X199756Y235209D01*
X199788Y235305D01*
X199825Y235399D01*
X199865Y235492D01*
X199909Y235584D01*
X199956Y235673D01*
X200007Y235761D01*
X200061Y235847D01*
X200118Y235930D01*
X200178Y236012D01*
X200242Y236090D01*
X200308Y236167D01*
X200378Y236240D01*
X200450Y236311D01*
X200525Y236379D01*
X200603Y236444D01*
X200683Y236506D01*
X200765Y236565D01*
X200850Y236621D01*
X200937Y236673D01*
X201025Y236722D01*
X201116Y236768D01*
X201208Y236809D01*
X201302Y236848D01*
X201397Y236882D01*
X201493Y236913D01*
X201591Y236940D01*
X201689Y236964D01*
X201789Y236983D01*
X201889Y236999D01*
X201989Y237011D01*
X202090Y237019D01*
X202191Y237023D01*
X202293Y237023D01*
X202394Y237019D01*
X202495Y237011D01*
X202595Y236999D01*
X202695Y236983D01*
X202795Y236964D01*
X202893Y236940D01*
X202991Y236913D01*
X203087Y236882D01*
X203182Y236848D01*
X203276Y236809D01*
X203368Y236768D01*
X203459Y236722D01*
X203548Y236673D01*
X203634Y236621D01*
X203719Y236565D01*
X203801Y236506D01*
X203881Y236444D01*
X203959Y236379D01*
X204034Y236311D01*
X204106Y236240D01*
X204176Y236167D01*
X204242Y236090D01*
X204306Y236012D01*
X204366Y235930D01*
X204423Y235847D01*
X204477Y235761D01*
X204528Y235673D01*
X204575Y235584D01*
X204619Y235492D01*
X204659Y235399D01*
X204696Y235305D01*
X204728Y235209D01*
X204757Y235112D01*
X204783Y235014D01*
X204804Y234915D01*
X204822Y234815D01*
X204835Y234715D01*
X204845Y234614D01*
X204851Y234513D01*
X204853Y234412D01*
X209029Y234934D02*
X209029Y231802D01*
X209029Y234934D02*
X209027Y235024D01*
X209021Y235113D01*
X209012Y235203D01*
X208998Y235292D01*
X208981Y235380D01*
X208960Y235467D01*
X208935Y235554D01*
X208906Y235639D01*
X208874Y235723D01*
X208839Y235805D01*
X208799Y235886D01*
X208757Y235965D01*
X208711Y236042D01*
X208661Y236117D01*
X208609Y236190D01*
X208553Y236261D01*
X208495Y236329D01*
X208433Y236394D01*
X208369Y236457D01*
X208302Y236517D01*
X208233Y236574D01*
X208161Y236628D01*
X208087Y236679D01*
X208011Y236727D01*
X207933Y236771D01*
X207853Y236812D01*
X207771Y236850D01*
X207688Y236884D01*
X207603Y236914D01*
X207517Y236941D01*
X207431Y236964D01*
X207343Y236983D01*
X207254Y236998D01*
X207165Y237010D01*
X207076Y237018D01*
X206986Y237022D01*
X206896Y237022D01*
X206806Y237018D01*
X206717Y237010D01*
X206628Y236998D01*
X206539Y236983D01*
X206451Y236964D01*
X206365Y236941D01*
X206279Y236914D01*
X206194Y236884D01*
X206111Y236850D01*
X206029Y236812D01*
X205949Y236771D01*
X205871Y236727D01*
X205795Y236679D01*
X205721Y236628D01*
X205649Y236574D01*
X205580Y236517D01*
X205513Y236457D01*
X205449Y236394D01*
X205387Y236329D01*
X205329Y236261D01*
X205273Y236190D01*
X205221Y236117D01*
X205171Y236042D01*
X205125Y235965D01*
X205083Y235886D01*
X205043Y235805D01*
X205008Y235723D01*
X204976Y235639D01*
X204947Y235554D01*
X204922Y235467D01*
X204901Y235380D01*
X204884Y235292D01*
X204870Y235203D01*
X204861Y235113D01*
X204855Y235024D01*
X204853Y234934D01*
X204852Y234934D02*
X204852Y232846D01*
X50406Y137433D02*
X50406Y135344D01*
X50408Y135255D01*
X50414Y135167D01*
X50423Y135079D01*
X50436Y134991D01*
X50453Y134904D01*
X50473Y134818D01*
X50498Y134733D01*
X50525Y134648D01*
X50557Y134565D01*
X50591Y134484D01*
X50630Y134404D01*
X50671Y134326D01*
X50716Y134249D01*
X50764Y134175D01*
X50815Y134102D01*
X50869Y134032D01*
X50927Y133965D01*
X50987Y133899D01*
X51049Y133837D01*
X51115Y133777D01*
X51182Y133719D01*
X51252Y133665D01*
X51325Y133614D01*
X51399Y133566D01*
X51476Y133521D01*
X51554Y133480D01*
X51634Y133441D01*
X51715Y133407D01*
X51798Y133375D01*
X51883Y133348D01*
X51968Y133323D01*
X52054Y133303D01*
X52141Y133286D01*
X52229Y133273D01*
X52317Y133264D01*
X52405Y133258D01*
X52494Y133256D01*
X57716Y133256D01*
X57807Y133258D01*
X57898Y133264D01*
X57989Y133274D01*
X58079Y133288D01*
X58168Y133305D01*
X58256Y133327D01*
X58344Y133353D01*
X58430Y133382D01*
X58515Y133415D01*
X58598Y133452D01*
X58680Y133492D01*
X58760Y133536D01*
X58838Y133583D01*
X58914Y133634D01*
X58987Y133687D01*
X59058Y133744D01*
X59127Y133805D01*
X59192Y133868D01*
X59255Y133933D01*
X59315Y134002D01*
X59373Y134073D01*
X59426Y134146D01*
X59477Y134222D01*
X59524Y134300D01*
X59568Y134380D01*
X59608Y134462D01*
X59645Y134545D01*
X59678Y134630D01*
X59707Y134716D01*
X59733Y134804D01*
X59755Y134892D01*
X59772Y134981D01*
X59786Y135071D01*
X59796Y135162D01*
X59802Y135253D01*
X59804Y135344D01*
X59804Y137433D01*
X59804Y142990D02*
X52494Y140902D01*
X52494Y146123D01*
X50406Y144556D02*
X54583Y144556D01*
X73406Y137433D02*
X73406Y135344D01*
X73408Y135255D01*
X73414Y135167D01*
X73423Y135079D01*
X73436Y134991D01*
X73453Y134904D01*
X73473Y134818D01*
X73498Y134733D01*
X73525Y134648D01*
X73557Y134565D01*
X73591Y134484D01*
X73630Y134404D01*
X73671Y134326D01*
X73716Y134249D01*
X73764Y134175D01*
X73815Y134102D01*
X73869Y134032D01*
X73927Y133965D01*
X73987Y133899D01*
X74049Y133837D01*
X74115Y133777D01*
X74182Y133719D01*
X74252Y133665D01*
X74325Y133614D01*
X74399Y133566D01*
X74476Y133521D01*
X74554Y133480D01*
X74634Y133441D01*
X74715Y133407D01*
X74798Y133375D01*
X74883Y133348D01*
X74968Y133323D01*
X75054Y133303D01*
X75141Y133286D01*
X75229Y133273D01*
X75317Y133264D01*
X75405Y133258D01*
X75494Y133256D01*
X80716Y133256D01*
X80807Y133258D01*
X80898Y133264D01*
X80989Y133274D01*
X81079Y133288D01*
X81168Y133305D01*
X81256Y133327D01*
X81344Y133353D01*
X81430Y133382D01*
X81515Y133415D01*
X81598Y133452D01*
X81680Y133492D01*
X81760Y133536D01*
X81838Y133583D01*
X81914Y133634D01*
X81987Y133687D01*
X82058Y133744D01*
X82127Y133805D01*
X82192Y133868D01*
X82255Y133933D01*
X82315Y134002D01*
X82373Y134073D01*
X82426Y134146D01*
X82477Y134222D01*
X82524Y134300D01*
X82568Y134380D01*
X82608Y134462D01*
X82645Y134545D01*
X82678Y134630D01*
X82707Y134716D01*
X82733Y134804D01*
X82755Y134892D01*
X82772Y134981D01*
X82786Y135071D01*
X82796Y135162D01*
X82802Y135253D01*
X82804Y135344D01*
X82804Y137433D01*
X78627Y140902D02*
X78627Y144034D01*
X78625Y144123D01*
X78619Y144211D01*
X78610Y144299D01*
X78597Y144387D01*
X78580Y144474D01*
X78560Y144560D01*
X78535Y144645D01*
X78508Y144730D01*
X78476Y144813D01*
X78442Y144894D01*
X78403Y144974D01*
X78362Y145052D01*
X78317Y145129D01*
X78269Y145203D01*
X78218Y145276D01*
X78164Y145346D01*
X78106Y145413D01*
X78046Y145479D01*
X77984Y145541D01*
X77918Y145601D01*
X77851Y145659D01*
X77781Y145713D01*
X77708Y145764D01*
X77634Y145812D01*
X77557Y145857D01*
X77479Y145898D01*
X77399Y145937D01*
X77318Y145971D01*
X77235Y146003D01*
X77150Y146030D01*
X77065Y146055D01*
X76979Y146075D01*
X76892Y146092D01*
X76804Y146105D01*
X76716Y146114D01*
X76628Y146120D01*
X76539Y146122D01*
X76539Y146123D02*
X76017Y146123D01*
X75916Y146121D01*
X75815Y146115D01*
X75714Y146105D01*
X75614Y146092D01*
X75514Y146074D01*
X75415Y146053D01*
X75317Y146027D01*
X75220Y145998D01*
X75124Y145966D01*
X75030Y145929D01*
X74937Y145889D01*
X74845Y145845D01*
X74756Y145798D01*
X74668Y145747D01*
X74582Y145693D01*
X74499Y145636D01*
X74417Y145576D01*
X74339Y145512D01*
X74262Y145446D01*
X74189Y145376D01*
X74118Y145304D01*
X74050Y145229D01*
X73985Y145151D01*
X73923Y145071D01*
X73864Y144989D01*
X73808Y144904D01*
X73756Y144818D01*
X73707Y144729D01*
X73661Y144638D01*
X73620Y144546D01*
X73581Y144452D01*
X73547Y144357D01*
X73516Y144261D01*
X73489Y144163D01*
X73465Y144065D01*
X73446Y143965D01*
X73430Y143865D01*
X73418Y143765D01*
X73410Y143664D01*
X73406Y143563D01*
X73406Y143461D01*
X73410Y143360D01*
X73418Y143259D01*
X73430Y143159D01*
X73446Y143059D01*
X73465Y142959D01*
X73489Y142861D01*
X73516Y142763D01*
X73547Y142667D01*
X73581Y142572D01*
X73620Y142478D01*
X73661Y142386D01*
X73707Y142295D01*
X73756Y142207D01*
X73808Y142120D01*
X73864Y142035D01*
X73923Y141953D01*
X73985Y141873D01*
X74050Y141795D01*
X74118Y141720D01*
X74189Y141648D01*
X74262Y141578D01*
X74339Y141512D01*
X74417Y141448D01*
X74499Y141388D01*
X74582Y141331D01*
X74668Y141277D01*
X74756Y141226D01*
X74845Y141179D01*
X74937Y141135D01*
X75030Y141095D01*
X75124Y141058D01*
X75220Y141026D01*
X75317Y140997D01*
X75415Y140971D01*
X75514Y140950D01*
X75614Y140932D01*
X75714Y140919D01*
X75815Y140909D01*
X75916Y140903D01*
X76017Y140901D01*
X76017Y140902D02*
X78627Y140902D01*
X78756Y140904D01*
X78884Y140910D01*
X79012Y140920D01*
X79140Y140934D01*
X79268Y140951D01*
X79395Y140973D01*
X79521Y140999D01*
X79646Y141028D01*
X79770Y141061D01*
X79893Y141099D01*
X80015Y141139D01*
X80136Y141184D01*
X80255Y141232D01*
X80373Y141284D01*
X80489Y141340D01*
X80603Y141399D01*
X80715Y141462D01*
X80826Y141528D01*
X80934Y141597D01*
X81040Y141670D01*
X81144Y141746D01*
X81246Y141825D01*
X81345Y141907D01*
X81441Y141992D01*
X81535Y142080D01*
X81626Y142171D01*
X81714Y142265D01*
X81799Y142361D01*
X81881Y142460D01*
X81960Y142562D01*
X82036Y142666D01*
X82109Y142772D01*
X82178Y142880D01*
X82244Y142990D01*
X82307Y143103D01*
X82366Y143217D01*
X82422Y143333D01*
X82474Y143451D01*
X82522Y143570D01*
X82567Y143691D01*
X82607Y143813D01*
X82645Y143936D01*
X82678Y144060D01*
X82707Y144185D01*
X82733Y144311D01*
X82755Y144438D01*
X82772Y144566D01*
X82786Y144694D01*
X82796Y144822D01*
X82802Y144950D01*
X82804Y145079D01*
X174371Y73479D02*
X174371Y71391D01*
X174373Y71302D01*
X174379Y71214D01*
X174388Y71126D01*
X174401Y71038D01*
X174418Y70951D01*
X174438Y70865D01*
X174463Y70780D01*
X174490Y70695D01*
X174522Y70612D01*
X174556Y70531D01*
X174595Y70451D01*
X174636Y70373D01*
X174681Y70296D01*
X174729Y70222D01*
X174780Y70149D01*
X174834Y70079D01*
X174892Y70012D01*
X174952Y69946D01*
X175014Y69884D01*
X175080Y69824D01*
X175147Y69766D01*
X175217Y69712D01*
X175290Y69661D01*
X175364Y69613D01*
X175441Y69568D01*
X175519Y69527D01*
X175599Y69488D01*
X175680Y69454D01*
X175763Y69422D01*
X175848Y69395D01*
X175933Y69370D01*
X176019Y69350D01*
X176106Y69333D01*
X176194Y69320D01*
X176282Y69311D01*
X176370Y69305D01*
X176459Y69303D01*
X176459Y69302D02*
X181681Y69302D01*
X181681Y69303D02*
X181772Y69305D01*
X181863Y69311D01*
X181954Y69321D01*
X182044Y69335D01*
X182133Y69352D01*
X182221Y69374D01*
X182309Y69400D01*
X182395Y69429D01*
X182480Y69462D01*
X182563Y69499D01*
X182645Y69539D01*
X182725Y69583D01*
X182803Y69630D01*
X182879Y69681D01*
X182952Y69734D01*
X183023Y69791D01*
X183092Y69852D01*
X183157Y69915D01*
X183220Y69980D01*
X183280Y70049D01*
X183338Y70120D01*
X183391Y70193D01*
X183442Y70269D01*
X183489Y70347D01*
X183533Y70427D01*
X183573Y70509D01*
X183610Y70592D01*
X183643Y70677D01*
X183672Y70763D01*
X183698Y70851D01*
X183720Y70939D01*
X183737Y71028D01*
X183751Y71118D01*
X183761Y71209D01*
X183767Y71300D01*
X183769Y71391D01*
X183769Y73479D01*
X183769Y76948D02*
X182725Y76948D01*
X183769Y76948D02*
X183769Y82169D01*
X174371Y79558D01*
X69596Y80916D02*
X69596Y83004D01*
X69596Y80916D02*
X69598Y80827D01*
X69604Y80739D01*
X69613Y80651D01*
X69626Y80563D01*
X69643Y80476D01*
X69663Y80390D01*
X69688Y80305D01*
X69715Y80220D01*
X69747Y80137D01*
X69781Y80056D01*
X69820Y79976D01*
X69861Y79898D01*
X69906Y79821D01*
X69954Y79747D01*
X70005Y79674D01*
X70059Y79604D01*
X70117Y79537D01*
X70177Y79471D01*
X70239Y79409D01*
X70305Y79349D01*
X70372Y79291D01*
X70442Y79237D01*
X70515Y79186D01*
X70589Y79138D01*
X70666Y79093D01*
X70744Y79052D01*
X70824Y79013D01*
X70905Y78979D01*
X70988Y78947D01*
X71073Y78920D01*
X71158Y78895D01*
X71244Y78875D01*
X71331Y78858D01*
X71419Y78845D01*
X71507Y78836D01*
X71595Y78830D01*
X71684Y78828D01*
X71684Y78827D02*
X76906Y78827D01*
X76906Y78828D02*
X76997Y78830D01*
X77088Y78836D01*
X77179Y78846D01*
X77269Y78860D01*
X77358Y78877D01*
X77446Y78899D01*
X77534Y78925D01*
X77620Y78954D01*
X77705Y78987D01*
X77788Y79024D01*
X77870Y79064D01*
X77950Y79108D01*
X78028Y79155D01*
X78104Y79206D01*
X78177Y79259D01*
X78248Y79316D01*
X78317Y79377D01*
X78382Y79440D01*
X78445Y79505D01*
X78505Y79574D01*
X78563Y79645D01*
X78616Y79718D01*
X78667Y79794D01*
X78714Y79872D01*
X78758Y79952D01*
X78798Y80034D01*
X78835Y80117D01*
X78868Y80202D01*
X78897Y80288D01*
X78923Y80376D01*
X78945Y80464D01*
X78962Y80553D01*
X78976Y80643D01*
X78986Y80734D01*
X78992Y80825D01*
X78994Y80916D01*
X78994Y83004D01*
X72207Y86472D02*
X72308Y86474D01*
X72409Y86480D01*
X72510Y86490D01*
X72610Y86503D01*
X72710Y86521D01*
X72809Y86542D01*
X72907Y86568D01*
X73004Y86597D01*
X73100Y86629D01*
X73194Y86666D01*
X73287Y86706D01*
X73379Y86750D01*
X73468Y86797D01*
X73556Y86848D01*
X73642Y86902D01*
X73725Y86959D01*
X73807Y87019D01*
X73885Y87083D01*
X73962Y87149D01*
X74035Y87219D01*
X74106Y87291D01*
X74174Y87366D01*
X74239Y87444D01*
X74301Y87524D01*
X74360Y87606D01*
X74416Y87691D01*
X74468Y87777D01*
X74517Y87866D01*
X74563Y87957D01*
X74604Y88049D01*
X74643Y88143D01*
X74677Y88238D01*
X74708Y88334D01*
X74735Y88432D01*
X74759Y88530D01*
X74778Y88630D01*
X74794Y88730D01*
X74806Y88830D01*
X74814Y88931D01*
X74818Y89032D01*
X74818Y89134D01*
X74814Y89235D01*
X74806Y89336D01*
X74794Y89436D01*
X74778Y89536D01*
X74759Y89636D01*
X74735Y89734D01*
X74708Y89832D01*
X74677Y89928D01*
X74643Y90023D01*
X74604Y90117D01*
X74563Y90209D01*
X74517Y90300D01*
X74468Y90388D01*
X74416Y90475D01*
X74360Y90560D01*
X74301Y90642D01*
X74239Y90722D01*
X74174Y90800D01*
X74106Y90875D01*
X74035Y90947D01*
X73962Y91017D01*
X73885Y91083D01*
X73807Y91147D01*
X73725Y91207D01*
X73642Y91264D01*
X73556Y91318D01*
X73468Y91369D01*
X73379Y91416D01*
X73287Y91460D01*
X73194Y91500D01*
X73100Y91537D01*
X73004Y91569D01*
X72907Y91598D01*
X72809Y91624D01*
X72710Y91645D01*
X72610Y91663D01*
X72510Y91676D01*
X72409Y91686D01*
X72308Y91692D01*
X72207Y91694D01*
X72106Y91692D01*
X72005Y91686D01*
X71904Y91676D01*
X71804Y91663D01*
X71704Y91645D01*
X71605Y91624D01*
X71507Y91598D01*
X71410Y91569D01*
X71314Y91537D01*
X71220Y91500D01*
X71127Y91460D01*
X71035Y91416D01*
X70946Y91369D01*
X70858Y91318D01*
X70772Y91264D01*
X70689Y91207D01*
X70607Y91147D01*
X70529Y91083D01*
X70452Y91017D01*
X70379Y90947D01*
X70308Y90875D01*
X70240Y90800D01*
X70175Y90722D01*
X70113Y90642D01*
X70054Y90560D01*
X69998Y90475D01*
X69946Y90389D01*
X69897Y90300D01*
X69851Y90209D01*
X69810Y90117D01*
X69771Y90023D01*
X69737Y89928D01*
X69706Y89832D01*
X69679Y89734D01*
X69655Y89636D01*
X69636Y89536D01*
X69620Y89436D01*
X69608Y89336D01*
X69600Y89235D01*
X69596Y89134D01*
X69596Y89032D01*
X69600Y88931D01*
X69608Y88830D01*
X69620Y88730D01*
X69636Y88630D01*
X69655Y88530D01*
X69679Y88432D01*
X69706Y88334D01*
X69737Y88238D01*
X69771Y88143D01*
X69810Y88049D01*
X69851Y87957D01*
X69897Y87866D01*
X69946Y87778D01*
X69998Y87691D01*
X70054Y87606D01*
X70113Y87524D01*
X70175Y87444D01*
X70240Y87366D01*
X70308Y87291D01*
X70379Y87219D01*
X70452Y87149D01*
X70529Y87083D01*
X70607Y87019D01*
X70689Y86959D01*
X70772Y86902D01*
X70858Y86848D01*
X70946Y86797D01*
X71035Y86750D01*
X71127Y86706D01*
X71220Y86666D01*
X71314Y86629D01*
X71410Y86597D01*
X71507Y86568D01*
X71605Y86542D01*
X71704Y86521D01*
X71804Y86503D01*
X71904Y86490D01*
X72005Y86480D01*
X72106Y86474D01*
X72207Y86472D01*
X76906Y86995D02*
X76996Y86997D01*
X77085Y87003D01*
X77175Y87012D01*
X77264Y87026D01*
X77352Y87043D01*
X77439Y87064D01*
X77526Y87089D01*
X77611Y87118D01*
X77695Y87150D01*
X77777Y87185D01*
X77858Y87225D01*
X77937Y87267D01*
X78014Y87313D01*
X78089Y87363D01*
X78162Y87415D01*
X78233Y87471D01*
X78301Y87529D01*
X78366Y87591D01*
X78429Y87655D01*
X78489Y87722D01*
X78546Y87791D01*
X78600Y87863D01*
X78651Y87937D01*
X78699Y88013D01*
X78743Y88091D01*
X78784Y88171D01*
X78822Y88253D01*
X78856Y88336D01*
X78886Y88421D01*
X78913Y88507D01*
X78936Y88593D01*
X78955Y88681D01*
X78970Y88770D01*
X78982Y88859D01*
X78990Y88948D01*
X78994Y89038D01*
X78994Y89128D01*
X78990Y89218D01*
X78982Y89307D01*
X78970Y89396D01*
X78955Y89485D01*
X78936Y89573D01*
X78913Y89659D01*
X78886Y89745D01*
X78856Y89830D01*
X78822Y89913D01*
X78784Y89995D01*
X78743Y90075D01*
X78699Y90153D01*
X78651Y90229D01*
X78600Y90303D01*
X78546Y90375D01*
X78489Y90444D01*
X78429Y90511D01*
X78366Y90575D01*
X78301Y90637D01*
X78233Y90695D01*
X78162Y90751D01*
X78089Y90803D01*
X78014Y90853D01*
X77937Y90899D01*
X77858Y90941D01*
X77777Y90981D01*
X77695Y91016D01*
X77611Y91048D01*
X77526Y91077D01*
X77439Y91102D01*
X77352Y91123D01*
X77264Y91140D01*
X77175Y91154D01*
X77085Y91163D01*
X76996Y91169D01*
X76906Y91171D01*
X76816Y91169D01*
X76727Y91163D01*
X76637Y91154D01*
X76548Y91140D01*
X76460Y91123D01*
X76373Y91102D01*
X76286Y91077D01*
X76201Y91048D01*
X76117Y91016D01*
X76035Y90981D01*
X75954Y90941D01*
X75875Y90899D01*
X75798Y90853D01*
X75723Y90803D01*
X75650Y90751D01*
X75579Y90695D01*
X75511Y90637D01*
X75446Y90575D01*
X75383Y90511D01*
X75323Y90444D01*
X75266Y90375D01*
X75212Y90303D01*
X75161Y90229D01*
X75113Y90153D01*
X75069Y90075D01*
X75028Y89995D01*
X74990Y89913D01*
X74956Y89830D01*
X74926Y89745D01*
X74899Y89659D01*
X74876Y89573D01*
X74857Y89485D01*
X74842Y89396D01*
X74830Y89307D01*
X74822Y89218D01*
X74818Y89128D01*
X74818Y89038D01*
X74822Y88948D01*
X74830Y88859D01*
X74842Y88770D01*
X74857Y88681D01*
X74876Y88593D01*
X74899Y88507D01*
X74926Y88421D01*
X74956Y88336D01*
X74990Y88253D01*
X75028Y88171D01*
X75069Y88091D01*
X75113Y88013D01*
X75161Y87937D01*
X75212Y87863D01*
X75266Y87791D01*
X75323Y87722D01*
X75383Y87655D01*
X75446Y87591D01*
X75511Y87529D01*
X75579Y87471D01*
X75650Y87415D01*
X75723Y87363D01*
X75798Y87313D01*
X75875Y87267D01*
X75954Y87225D01*
X76035Y87185D01*
X76117Y87150D01*
X76201Y87118D01*
X76286Y87089D01*
X76373Y87064D01*
X76460Y87043D01*
X76548Y87026D01*
X76637Y87012D01*
X76727Y87003D01*
X76816Y86997D01*
X76906Y86995D01*
D11*
X258890Y94212D03*
D12*
X260950Y101000D02*
X256390Y101000D01*
X260950Y101000D02*
X260950Y105560D01*
X260950Y153000D02*
X256390Y153000D01*
X260950Y153000D02*
X260950Y148440D01*
X213510Y153000D02*
X208950Y153000D01*
X208950Y148440D01*
X208950Y101000D02*
X213510Y101000D01*
X208950Y101000D02*
X208950Y105560D01*
D10*
X283869Y119665D02*
X290656Y119665D01*
X283869Y119665D02*
X283768Y119667D01*
X283667Y119673D01*
X283566Y119683D01*
X283466Y119696D01*
X283366Y119714D01*
X283267Y119735D01*
X283169Y119761D01*
X283072Y119790D01*
X282976Y119822D01*
X282882Y119859D01*
X282789Y119899D01*
X282697Y119943D01*
X282608Y119990D01*
X282520Y120041D01*
X282434Y120095D01*
X282351Y120152D01*
X282269Y120212D01*
X282191Y120276D01*
X282114Y120342D01*
X282041Y120412D01*
X281970Y120484D01*
X281902Y120559D01*
X281837Y120637D01*
X281775Y120717D01*
X281716Y120799D01*
X281660Y120884D01*
X281608Y120971D01*
X281559Y121059D01*
X281513Y121150D01*
X281472Y121242D01*
X281433Y121336D01*
X281399Y121431D01*
X281368Y121527D01*
X281341Y121625D01*
X281317Y121723D01*
X281298Y121823D01*
X281282Y121923D01*
X281270Y122023D01*
X281262Y122124D01*
X281258Y122225D01*
X281258Y122327D01*
X281262Y122428D01*
X281270Y122529D01*
X281282Y122629D01*
X281298Y122729D01*
X281317Y122829D01*
X281341Y122927D01*
X281368Y123025D01*
X281399Y123121D01*
X281433Y123216D01*
X281472Y123310D01*
X281513Y123402D01*
X281559Y123493D01*
X281608Y123582D01*
X281660Y123668D01*
X281716Y123753D01*
X281775Y123835D01*
X281837Y123915D01*
X281902Y123993D01*
X281970Y124068D01*
X282041Y124140D01*
X282114Y124210D01*
X282191Y124276D01*
X282269Y124340D01*
X282351Y124400D01*
X282434Y124457D01*
X282520Y124511D01*
X282608Y124562D01*
X282697Y124609D01*
X282789Y124653D01*
X282882Y124693D01*
X282976Y124730D01*
X283072Y124762D01*
X283169Y124791D01*
X283267Y124817D01*
X283366Y124838D01*
X283466Y124856D01*
X283566Y124869D01*
X283667Y124879D01*
X283768Y124885D01*
X283869Y124887D01*
X283869Y124886D02*
X290656Y124886D01*
X288568Y129114D02*
X290656Y131724D01*
X281258Y131724D01*
X281258Y129114D02*
X281258Y134335D01*
D13*
X165735Y189611D02*
X145415Y189611D01*
X145415Y202819D02*
X145415Y209931D01*
X145415Y223139D02*
X165735Y223139D01*
D10*
X173390Y224607D02*
X173390Y228586D01*
X173390Y224607D02*
X171069Y221622D01*
X173390Y224607D02*
X175712Y221622D01*
X173390Y224607D02*
X169743Y225933D01*
X173390Y224607D02*
X177038Y225933D01*
X162560Y231592D02*
X162560Y238379D01*
X162560Y231592D02*
X162558Y231491D01*
X162552Y231390D01*
X162542Y231289D01*
X162529Y231189D01*
X162511Y231089D01*
X162490Y230990D01*
X162464Y230892D01*
X162435Y230795D01*
X162403Y230699D01*
X162366Y230605D01*
X162326Y230512D01*
X162282Y230420D01*
X162235Y230331D01*
X162184Y230243D01*
X162130Y230157D01*
X162073Y230074D01*
X162013Y229992D01*
X161949Y229914D01*
X161883Y229837D01*
X161813Y229764D01*
X161741Y229693D01*
X161666Y229625D01*
X161588Y229560D01*
X161508Y229498D01*
X161426Y229439D01*
X161341Y229383D01*
X161254Y229331D01*
X161166Y229282D01*
X161075Y229236D01*
X160983Y229195D01*
X160889Y229156D01*
X160794Y229122D01*
X160698Y229091D01*
X160600Y229064D01*
X160502Y229040D01*
X160402Y229021D01*
X160302Y229005D01*
X160202Y228993D01*
X160101Y228985D01*
X160000Y228981D01*
X159898Y228981D01*
X159797Y228985D01*
X159696Y228993D01*
X159596Y229005D01*
X159496Y229021D01*
X159396Y229040D01*
X159298Y229064D01*
X159200Y229091D01*
X159104Y229122D01*
X159009Y229156D01*
X158915Y229195D01*
X158823Y229236D01*
X158732Y229282D01*
X158644Y229331D01*
X158557Y229383D01*
X158472Y229439D01*
X158390Y229498D01*
X158310Y229560D01*
X158232Y229625D01*
X158157Y229693D01*
X158085Y229764D01*
X158015Y229837D01*
X157949Y229914D01*
X157885Y229992D01*
X157825Y230074D01*
X157768Y230157D01*
X157714Y230243D01*
X157663Y230331D01*
X157616Y230420D01*
X157572Y230512D01*
X157532Y230605D01*
X157495Y230699D01*
X157463Y230795D01*
X157434Y230892D01*
X157408Y230990D01*
X157387Y231089D01*
X157369Y231189D01*
X157356Y231289D01*
X157346Y231390D01*
X157340Y231491D01*
X157338Y231592D01*
X157339Y231592D02*
X157339Y238379D01*
X153111Y228981D02*
X150501Y228981D01*
X150400Y228983D01*
X150299Y228989D01*
X150198Y228999D01*
X150098Y229012D01*
X149998Y229030D01*
X149899Y229051D01*
X149801Y229077D01*
X149704Y229106D01*
X149608Y229138D01*
X149514Y229175D01*
X149421Y229215D01*
X149329Y229259D01*
X149240Y229306D01*
X149152Y229357D01*
X149066Y229411D01*
X148983Y229468D01*
X148901Y229528D01*
X148823Y229592D01*
X148746Y229658D01*
X148673Y229728D01*
X148602Y229800D01*
X148534Y229875D01*
X148469Y229953D01*
X148407Y230033D01*
X148348Y230115D01*
X148292Y230200D01*
X148240Y230287D01*
X148191Y230375D01*
X148145Y230466D01*
X148104Y230558D01*
X148065Y230652D01*
X148031Y230747D01*
X148000Y230843D01*
X147973Y230941D01*
X147949Y231039D01*
X147930Y231139D01*
X147914Y231239D01*
X147902Y231339D01*
X147894Y231440D01*
X147890Y231541D01*
X147890Y231643D01*
X147894Y231744D01*
X147902Y231845D01*
X147914Y231945D01*
X147930Y232045D01*
X147949Y232145D01*
X147973Y232243D01*
X148000Y232341D01*
X148031Y232437D01*
X148065Y232532D01*
X148104Y232626D01*
X148145Y232718D01*
X148191Y232809D01*
X148240Y232898D01*
X148292Y232984D01*
X148348Y233069D01*
X148407Y233151D01*
X148469Y233231D01*
X148534Y233309D01*
X148602Y233384D01*
X148673Y233456D01*
X148746Y233526D01*
X148823Y233592D01*
X148901Y233656D01*
X148983Y233716D01*
X149066Y233773D01*
X149152Y233827D01*
X149240Y233878D01*
X149329Y233925D01*
X149421Y233969D01*
X149514Y234009D01*
X149608Y234046D01*
X149704Y234078D01*
X149801Y234107D01*
X149899Y234133D01*
X149998Y234154D01*
X150098Y234172D01*
X150198Y234185D01*
X150299Y234195D01*
X150400Y234201D01*
X150501Y234203D01*
X149979Y238379D02*
X153111Y238379D01*
X149979Y238379D02*
X149889Y238377D01*
X149800Y238371D01*
X149710Y238362D01*
X149621Y238348D01*
X149533Y238331D01*
X149446Y238310D01*
X149359Y238285D01*
X149274Y238256D01*
X149190Y238224D01*
X149108Y238189D01*
X149027Y238149D01*
X148948Y238107D01*
X148871Y238061D01*
X148796Y238011D01*
X148723Y237959D01*
X148652Y237903D01*
X148584Y237845D01*
X148519Y237783D01*
X148456Y237719D01*
X148396Y237652D01*
X148339Y237583D01*
X148285Y237511D01*
X148234Y237437D01*
X148186Y237361D01*
X148142Y237283D01*
X148101Y237203D01*
X148063Y237121D01*
X148029Y237038D01*
X147999Y236953D01*
X147972Y236867D01*
X147949Y236781D01*
X147930Y236693D01*
X147915Y236604D01*
X147903Y236515D01*
X147895Y236426D01*
X147891Y236336D01*
X147891Y236246D01*
X147895Y236156D01*
X147903Y236067D01*
X147915Y235978D01*
X147930Y235889D01*
X147949Y235801D01*
X147972Y235715D01*
X147999Y235629D01*
X148029Y235544D01*
X148063Y235461D01*
X148101Y235379D01*
X148142Y235299D01*
X148186Y235221D01*
X148234Y235145D01*
X148285Y235071D01*
X148339Y234999D01*
X148396Y234930D01*
X148456Y234863D01*
X148519Y234799D01*
X148584Y234737D01*
X148652Y234679D01*
X148723Y234623D01*
X148796Y234571D01*
X148871Y234521D01*
X148948Y234475D01*
X149027Y234433D01*
X149108Y234393D01*
X149190Y234358D01*
X149274Y234326D01*
X149359Y234297D01*
X149446Y234272D01*
X149533Y234251D01*
X149621Y234234D01*
X149710Y234220D01*
X149800Y234211D01*
X149889Y234205D01*
X149979Y234203D01*
X149979Y234202D02*
X152067Y234202D01*
X95631Y229983D02*
X95631Y227894D01*
X95633Y227805D01*
X95639Y227717D01*
X95648Y227629D01*
X95661Y227541D01*
X95678Y227454D01*
X95698Y227368D01*
X95723Y227283D01*
X95750Y227198D01*
X95782Y227115D01*
X95816Y227034D01*
X95855Y226954D01*
X95896Y226876D01*
X95941Y226799D01*
X95989Y226725D01*
X96040Y226652D01*
X96094Y226582D01*
X96152Y226515D01*
X96212Y226449D01*
X96274Y226387D01*
X96340Y226327D01*
X96407Y226269D01*
X96477Y226215D01*
X96550Y226164D01*
X96624Y226116D01*
X96701Y226071D01*
X96779Y226030D01*
X96859Y225991D01*
X96940Y225957D01*
X97023Y225925D01*
X97108Y225898D01*
X97193Y225873D01*
X97279Y225853D01*
X97366Y225836D01*
X97454Y225823D01*
X97542Y225814D01*
X97630Y225808D01*
X97719Y225806D01*
X102941Y225806D01*
X103032Y225808D01*
X103123Y225814D01*
X103214Y225824D01*
X103304Y225838D01*
X103393Y225855D01*
X103481Y225877D01*
X103569Y225903D01*
X103655Y225932D01*
X103740Y225965D01*
X103823Y226002D01*
X103905Y226042D01*
X103985Y226086D01*
X104063Y226133D01*
X104139Y226184D01*
X104212Y226237D01*
X104283Y226294D01*
X104352Y226355D01*
X104417Y226418D01*
X104480Y226483D01*
X104540Y226552D01*
X104598Y226623D01*
X104651Y226696D01*
X104702Y226772D01*
X104749Y226850D01*
X104793Y226930D01*
X104833Y227012D01*
X104870Y227095D01*
X104903Y227180D01*
X104932Y227266D01*
X104958Y227354D01*
X104980Y227442D01*
X104997Y227531D01*
X105011Y227621D01*
X105021Y227712D01*
X105027Y227803D01*
X105029Y227894D01*
X105029Y229983D01*
X102941Y233452D02*
X105029Y236062D01*
X95631Y236062D01*
X95631Y233452D02*
X95631Y238673D01*
X100330Y242595D02*
X100515Y242597D01*
X100700Y242604D01*
X100884Y242615D01*
X101068Y242630D01*
X101252Y242650D01*
X101436Y242674D01*
X101618Y242703D01*
X101800Y242736D01*
X101981Y242773D01*
X102161Y242815D01*
X102341Y242861D01*
X102519Y242911D01*
X102695Y242965D01*
X102871Y243024D01*
X103045Y243086D01*
X103217Y243153D01*
X103388Y243224D01*
X103557Y243299D01*
X103724Y243378D01*
X103804Y243408D01*
X103883Y243441D01*
X103960Y243478D01*
X104036Y243518D01*
X104110Y243561D01*
X104182Y243607D01*
X104251Y243657D01*
X104319Y243709D01*
X104384Y243765D01*
X104447Y243823D01*
X104506Y243885D01*
X104564Y243948D01*
X104618Y244015D01*
X104669Y244083D01*
X104717Y244154D01*
X104762Y244227D01*
X104804Y244301D01*
X104842Y244378D01*
X104877Y244456D01*
X104909Y244535D01*
X104937Y244616D01*
X104961Y244698D01*
X104982Y244782D01*
X104999Y244865D01*
X105012Y244950D01*
X105021Y245035D01*
X105027Y245120D01*
X105029Y245206D01*
X105027Y245292D01*
X105021Y245377D01*
X105012Y245462D01*
X104999Y245547D01*
X104982Y245630D01*
X104961Y245714D01*
X104937Y245796D01*
X104909Y245877D01*
X104877Y245956D01*
X104842Y246034D01*
X104804Y246111D01*
X104762Y246185D01*
X104717Y246258D01*
X104669Y246329D01*
X104618Y246397D01*
X104564Y246464D01*
X104506Y246527D01*
X104447Y246589D01*
X104384Y246647D01*
X104319Y246703D01*
X104251Y246755D01*
X104182Y246805D01*
X104110Y246851D01*
X104036Y246894D01*
X103960Y246934D01*
X103883Y246971D01*
X103804Y247004D01*
X103724Y247034D01*
X103557Y247113D01*
X103388Y247188D01*
X103217Y247259D01*
X103045Y247326D01*
X102871Y247388D01*
X102695Y247447D01*
X102519Y247501D01*
X102341Y247551D01*
X102161Y247597D01*
X101981Y247639D01*
X101800Y247676D01*
X101618Y247709D01*
X101436Y247738D01*
X101252Y247762D01*
X101068Y247782D01*
X100884Y247797D01*
X100700Y247808D01*
X100515Y247815D01*
X100330Y247817D01*
X100330Y242596D02*
X100145Y242598D01*
X99960Y242605D01*
X99776Y242616D01*
X99592Y242631D01*
X99408Y242651D01*
X99224Y242675D01*
X99042Y242704D01*
X98860Y242737D01*
X98679Y242774D01*
X98499Y242816D01*
X98319Y242862D01*
X98141Y242912D01*
X97965Y242966D01*
X97789Y243025D01*
X97615Y243087D01*
X97443Y243154D01*
X97272Y243225D01*
X97103Y243300D01*
X96936Y243379D01*
X96936Y243378D02*
X96856Y243408D01*
X96777Y243441D01*
X96700Y243478D01*
X96624Y243518D01*
X96550Y243561D01*
X96478Y243607D01*
X96409Y243657D01*
X96341Y243710D01*
X96276Y243765D01*
X96213Y243824D01*
X96154Y243885D01*
X96096Y243948D01*
X96042Y244015D01*
X95991Y244083D01*
X95943Y244154D01*
X95898Y244227D01*
X95856Y244301D01*
X95818Y244378D01*
X95783Y244456D01*
X95751Y244535D01*
X95723Y244616D01*
X95699Y244698D01*
X95678Y244782D01*
X95661Y244865D01*
X95648Y244950D01*
X95639Y245035D01*
X95633Y245120D01*
X95631Y245206D01*
X96936Y247034D02*
X97103Y247113D01*
X97272Y247188D01*
X97443Y247259D01*
X97615Y247326D01*
X97789Y247388D01*
X97965Y247447D01*
X98141Y247501D01*
X98319Y247551D01*
X98499Y247597D01*
X98679Y247639D01*
X98860Y247676D01*
X99042Y247709D01*
X99224Y247738D01*
X99408Y247762D01*
X99592Y247782D01*
X99776Y247797D01*
X99960Y247808D01*
X100145Y247815D01*
X100330Y247817D01*
X96936Y247034D02*
X96856Y247004D01*
X96777Y246971D01*
X96700Y246934D01*
X96624Y246894D01*
X96550Y246851D01*
X96478Y246805D01*
X96409Y246755D01*
X96341Y246703D01*
X96276Y246647D01*
X96213Y246589D01*
X96154Y246527D01*
X96096Y246464D01*
X96042Y246397D01*
X95991Y246329D01*
X95943Y246258D01*
X95898Y246185D01*
X95856Y246111D01*
X95818Y246034D01*
X95783Y245956D01*
X95751Y245877D01*
X95723Y245796D01*
X95699Y245714D01*
X95678Y245630D01*
X95661Y245547D01*
X95648Y245462D01*
X95639Y245377D01*
X95633Y245292D01*
X95631Y245206D01*
X97719Y243118D02*
X102941Y247295D01*
X117856Y230458D02*
X117856Y228369D01*
X117858Y228280D01*
X117864Y228192D01*
X117873Y228104D01*
X117886Y228016D01*
X117903Y227929D01*
X117923Y227843D01*
X117948Y227758D01*
X117975Y227673D01*
X118007Y227590D01*
X118041Y227509D01*
X118080Y227429D01*
X118121Y227351D01*
X118166Y227274D01*
X118214Y227200D01*
X118265Y227127D01*
X118319Y227057D01*
X118377Y226990D01*
X118437Y226924D01*
X118499Y226862D01*
X118565Y226802D01*
X118632Y226744D01*
X118702Y226690D01*
X118775Y226639D01*
X118849Y226591D01*
X118926Y226546D01*
X119004Y226505D01*
X119084Y226466D01*
X119165Y226432D01*
X119248Y226400D01*
X119333Y226373D01*
X119418Y226348D01*
X119504Y226328D01*
X119591Y226311D01*
X119679Y226298D01*
X119767Y226289D01*
X119855Y226283D01*
X119944Y226281D01*
X125166Y226281D01*
X125257Y226283D01*
X125348Y226289D01*
X125439Y226299D01*
X125529Y226313D01*
X125618Y226330D01*
X125706Y226352D01*
X125794Y226378D01*
X125880Y226407D01*
X125965Y226440D01*
X126048Y226477D01*
X126130Y226517D01*
X126210Y226561D01*
X126288Y226608D01*
X126364Y226659D01*
X126437Y226712D01*
X126508Y226769D01*
X126577Y226830D01*
X126642Y226893D01*
X126705Y226958D01*
X126765Y227027D01*
X126823Y227098D01*
X126876Y227171D01*
X126927Y227247D01*
X126974Y227325D01*
X127018Y227405D01*
X127058Y227487D01*
X127095Y227570D01*
X127128Y227655D01*
X127157Y227741D01*
X127183Y227829D01*
X127205Y227917D01*
X127222Y228006D01*
X127236Y228096D01*
X127246Y228187D01*
X127252Y228278D01*
X127254Y228369D01*
X127254Y230458D01*
X125166Y233927D02*
X127254Y236537D01*
X117856Y236537D01*
X117856Y233927D02*
X117856Y239148D01*
X125166Y243071D02*
X127254Y245681D01*
X117856Y245681D01*
X117856Y243071D02*
X117856Y248292D01*
X241681Y228333D02*
X241681Y226244D01*
X241683Y226155D01*
X241689Y226067D01*
X241698Y225979D01*
X241711Y225891D01*
X241728Y225804D01*
X241748Y225718D01*
X241773Y225633D01*
X241800Y225548D01*
X241832Y225465D01*
X241866Y225384D01*
X241905Y225304D01*
X241946Y225226D01*
X241991Y225149D01*
X242039Y225075D01*
X242090Y225002D01*
X242144Y224932D01*
X242202Y224865D01*
X242262Y224799D01*
X242324Y224737D01*
X242390Y224677D01*
X242457Y224619D01*
X242527Y224565D01*
X242600Y224514D01*
X242674Y224466D01*
X242751Y224421D01*
X242829Y224380D01*
X242909Y224341D01*
X242990Y224307D01*
X243073Y224275D01*
X243158Y224248D01*
X243243Y224223D01*
X243329Y224203D01*
X243416Y224186D01*
X243504Y224173D01*
X243592Y224164D01*
X243680Y224158D01*
X243769Y224156D01*
X248991Y224156D01*
X249082Y224158D01*
X249173Y224164D01*
X249264Y224174D01*
X249354Y224188D01*
X249443Y224205D01*
X249531Y224227D01*
X249619Y224253D01*
X249705Y224282D01*
X249790Y224315D01*
X249873Y224352D01*
X249955Y224392D01*
X250035Y224436D01*
X250113Y224483D01*
X250189Y224534D01*
X250262Y224587D01*
X250333Y224644D01*
X250402Y224705D01*
X250467Y224768D01*
X250530Y224833D01*
X250590Y224902D01*
X250648Y224973D01*
X250701Y225046D01*
X250752Y225122D01*
X250799Y225200D01*
X250843Y225280D01*
X250883Y225362D01*
X250920Y225445D01*
X250953Y225530D01*
X250982Y225616D01*
X251008Y225704D01*
X251030Y225792D01*
X251047Y225881D01*
X251061Y225971D01*
X251071Y226062D01*
X251077Y226153D01*
X251079Y226244D01*
X251079Y228333D01*
X248991Y231802D02*
X251079Y234412D01*
X241681Y234412D01*
X241681Y231802D02*
X241681Y237023D01*
X248730Y246167D02*
X248825Y246165D01*
X248919Y246159D01*
X249013Y246150D01*
X249107Y246137D01*
X249200Y246120D01*
X249292Y246099D01*
X249384Y246074D01*
X249474Y246046D01*
X249563Y246014D01*
X249651Y245979D01*
X249737Y245940D01*
X249822Y245898D01*
X249905Y245852D01*
X249986Y245803D01*
X250065Y245751D01*
X250142Y245696D01*
X250216Y245637D01*
X250288Y245576D01*
X250358Y245512D01*
X250425Y245445D01*
X250489Y245375D01*
X250550Y245303D01*
X250609Y245229D01*
X250664Y245152D01*
X250716Y245073D01*
X250765Y244992D01*
X250811Y244909D01*
X250853Y244824D01*
X250892Y244738D01*
X250927Y244650D01*
X250959Y244561D01*
X250987Y244471D01*
X251012Y244379D01*
X251033Y244287D01*
X251050Y244194D01*
X251063Y244100D01*
X251072Y244006D01*
X251078Y243912D01*
X251080Y243817D01*
X251079Y243817D02*
X251077Y243709D01*
X251071Y243600D01*
X251061Y243492D01*
X251048Y243385D01*
X251030Y243278D01*
X251009Y243171D01*
X250984Y243066D01*
X250955Y242961D01*
X250923Y242858D01*
X250886Y242756D01*
X250846Y242655D01*
X250803Y242556D01*
X250756Y242458D01*
X250705Y242362D01*
X250651Y242268D01*
X250594Y242176D01*
X250533Y242086D01*
X250469Y241998D01*
X250403Y241913D01*
X250333Y241830D01*
X250260Y241750D01*
X250184Y241672D01*
X250106Y241597D01*
X250025Y241525D01*
X249941Y241456D01*
X249855Y241390D01*
X249767Y241327D01*
X249676Y241268D01*
X249584Y241211D01*
X249489Y241158D01*
X249393Y241109D01*
X249294Y241063D01*
X249195Y241020D01*
X249093Y240981D01*
X248991Y240946D01*
X246902Y245384D02*
X246971Y245453D01*
X247042Y245519D01*
X247115Y245583D01*
X247191Y245644D01*
X247270Y245702D01*
X247350Y245756D01*
X247433Y245808D01*
X247517Y245856D01*
X247603Y245902D01*
X247691Y245943D01*
X247781Y245982D01*
X247872Y246017D01*
X247964Y246048D01*
X248057Y246076D01*
X248151Y246100D01*
X248246Y246120D01*
X248342Y246137D01*
X248439Y246150D01*
X248536Y246159D01*
X248633Y246165D01*
X248730Y246167D01*
X246902Y245384D02*
X241681Y240946D01*
X241681Y246167D01*
D14*
X155988Y175768D02*
X155988Y78232D01*
X117062Y176768D02*
X117081Y176881D01*
X117103Y176993D01*
X117130Y177104D01*
X117160Y177214D01*
X117195Y177323D01*
X117233Y177431D01*
X117274Y177538D01*
X117319Y177643D01*
X117368Y177746D01*
X117420Y177848D01*
X117476Y177948D01*
X117535Y178046D01*
X117597Y178141D01*
X117663Y178235D01*
X117732Y178326D01*
X117803Y178415D01*
X117878Y178502D01*
X117956Y178586D01*
X118036Y178667D01*
X118120Y178745D01*
X118206Y178821D01*
X118294Y178893D01*
X118385Y178962D01*
X118478Y179029D01*
X118573Y179092D01*
X118671Y179152D01*
X118770Y179208D01*
X118871Y179261D01*
X118975Y179310D01*
X119079Y179356D01*
X119185Y179399D01*
X119293Y179437D01*
X119402Y179472D01*
X119512Y179504D01*
X119623Y179531D01*
X119735Y179555D01*
X119847Y179575D01*
X119960Y179591D01*
X120074Y179603D01*
X120188Y179611D01*
X120302Y179615D01*
X120417Y179616D01*
X120531Y179612D01*
X120645Y179605D01*
X120759Y179594D01*
X120872Y179578D01*
X155988Y78232D02*
X155971Y78102D01*
X155950Y77973D01*
X155925Y77844D01*
X155897Y77716D01*
X155864Y77589D01*
X155828Y77463D01*
X155787Y77338D01*
X155743Y77215D01*
X155696Y77093D01*
X155644Y76972D01*
X155590Y76853D01*
X155531Y76736D01*
X155469Y76621D01*
X155404Y76507D01*
X155335Y76395D01*
X155262Y76286D01*
X155187Y76179D01*
X155108Y76074D01*
X155026Y75972D01*
X154941Y75872D01*
X154854Y75775D01*
X154763Y75680D01*
X154669Y75588D01*
X154573Y75499D01*
X154474Y75413D01*
X154373Y75331D01*
X154269Y75251D01*
X154162Y75174D01*
X154054Y75101D01*
X153943Y75031D01*
X153830Y74964D01*
X153715Y74901D01*
X153599Y74841D01*
X153480Y74785D01*
X153360Y74732D01*
X153239Y74683D01*
X153116Y74638D01*
X152991Y74596D01*
X152866Y74558D01*
X152739Y74525D01*
X152612Y74494D01*
X152483Y74468D01*
X152354Y74446D01*
X152224Y74427D01*
X152094Y74413D01*
X151963Y74402D01*
X151832Y74396D01*
X151701Y74393D01*
X151570Y74394D01*
X151439Y74400D01*
X151309Y74409D01*
X151178Y74422D01*
X155988Y175768D02*
X155986Y175890D01*
X155980Y176012D01*
X155970Y176134D01*
X155957Y176255D01*
X155939Y176376D01*
X155918Y176496D01*
X155893Y176616D01*
X155864Y176735D01*
X155831Y176852D01*
X155794Y176969D01*
X155754Y177084D01*
X155710Y177198D01*
X155662Y177310D01*
X155611Y177421D01*
X155556Y177530D01*
X155498Y177638D01*
X155436Y177743D01*
X155371Y177847D01*
X155303Y177948D01*
X155232Y178047D01*
X155157Y178144D01*
X155079Y178238D01*
X154999Y178330D01*
X154915Y178419D01*
X154829Y178505D01*
X154740Y178589D01*
X154648Y178669D01*
X154554Y178747D01*
X154457Y178822D01*
X154358Y178893D01*
X154257Y178961D01*
X154153Y179026D01*
X154048Y179088D01*
X153940Y179146D01*
X153831Y179201D01*
X153720Y179252D01*
X153608Y179300D01*
X153494Y179344D01*
X153379Y179384D01*
X153262Y179421D01*
X153145Y179454D01*
X153026Y179483D01*
X152906Y179508D01*
X152786Y179529D01*
X152665Y179547D01*
X152544Y179560D01*
X152422Y179570D01*
X152300Y179576D01*
X152178Y179578D01*
X117062Y78233D02*
X117047Y78119D01*
X117035Y78005D01*
X117028Y77891D01*
X117024Y77777D01*
X117025Y77663D01*
X117029Y77548D01*
X117037Y77434D01*
X117049Y77321D01*
X117065Y77208D01*
X117085Y77095D01*
X117109Y76983D01*
X117136Y76872D01*
X117167Y76762D01*
X117202Y76653D01*
X117241Y76546D01*
X117283Y76439D01*
X117329Y76335D01*
X117379Y76232D01*
X117432Y76130D01*
X117488Y76031D01*
X117548Y75933D01*
X117611Y75838D01*
X117677Y75745D01*
X117747Y75654D01*
X117819Y75566D01*
X117895Y75480D01*
X117973Y75397D01*
X118054Y75316D01*
X118138Y75238D01*
X118224Y75164D01*
X118313Y75092D01*
X118405Y75023D01*
X118498Y74957D01*
X118594Y74895D01*
X118692Y74836D01*
X118792Y74780D01*
X118894Y74728D01*
X118997Y74680D01*
X119102Y74634D01*
X119209Y74593D01*
X119317Y74555D01*
X119426Y74521D01*
X119536Y74491D01*
X119647Y74464D01*
X119759Y74441D01*
X119872Y74422D01*
X117062Y78232D02*
X117062Y176768D01*
X120872Y179578D02*
X152178Y179578D01*
X142621Y74930D02*
X142619Y75088D01*
X142613Y75247D01*
X142603Y75405D01*
X142589Y75562D01*
X142572Y75720D01*
X142550Y75876D01*
X142525Y76033D01*
X142495Y76188D01*
X142462Y76343D01*
X142425Y76497D01*
X142384Y76650D01*
X142339Y76802D01*
X142290Y76952D01*
X142238Y77102D01*
X142182Y77250D01*
X142122Y77397D01*
X142059Y77542D01*
X141992Y77685D01*
X141922Y77827D01*
X141848Y77967D01*
X141770Y78105D01*
X141689Y78241D01*
X141605Y78375D01*
X141518Y78507D01*
X141427Y78637D01*
X141333Y78764D01*
X141236Y78889D01*
X141135Y79012D01*
X141032Y79132D01*
X140926Y79249D01*
X140817Y79364D01*
X140705Y79476D01*
X140590Y79585D01*
X140473Y79691D01*
X140353Y79794D01*
X140230Y79895D01*
X140105Y79992D01*
X139978Y80086D01*
X139848Y80177D01*
X139716Y80264D01*
X139582Y80348D01*
X139446Y80429D01*
X139308Y80507D01*
X139168Y80581D01*
X139026Y80651D01*
X138883Y80718D01*
X138738Y80781D01*
X138591Y80841D01*
X138443Y80897D01*
X138293Y80949D01*
X138143Y80998D01*
X137991Y81043D01*
X137838Y81084D01*
X137684Y81121D01*
X137529Y81154D01*
X137374Y81184D01*
X137217Y81209D01*
X137061Y81231D01*
X136903Y81248D01*
X136746Y81262D01*
X136588Y81272D01*
X136429Y81278D01*
X136271Y81280D01*
X136113Y81278D01*
X135954Y81272D01*
X135796Y81262D01*
X135639Y81248D01*
X135481Y81231D01*
X135325Y81209D01*
X135168Y81184D01*
X135013Y81154D01*
X134858Y81121D01*
X134704Y81084D01*
X134551Y81043D01*
X134399Y80998D01*
X134249Y80949D01*
X134099Y80897D01*
X133951Y80841D01*
X133804Y80781D01*
X133659Y80718D01*
X133516Y80651D01*
X133374Y80581D01*
X133234Y80507D01*
X133096Y80429D01*
X132960Y80348D01*
X132826Y80264D01*
X132694Y80177D01*
X132564Y80086D01*
X132437Y79992D01*
X132312Y79895D01*
X132189Y79794D01*
X132069Y79691D01*
X131952Y79585D01*
X131837Y79476D01*
X131725Y79364D01*
X131616Y79249D01*
X131510Y79132D01*
X131407Y79012D01*
X131306Y78889D01*
X131209Y78764D01*
X131115Y78637D01*
X131024Y78507D01*
X130937Y78375D01*
X130853Y78241D01*
X130772Y78105D01*
X130694Y77967D01*
X130620Y77827D01*
X130550Y77685D01*
X130483Y77542D01*
X130420Y77397D01*
X130360Y77250D01*
X130304Y77102D01*
X130252Y76952D01*
X130203Y76802D01*
X130158Y76650D01*
X130117Y76497D01*
X130080Y76343D01*
X130047Y76188D01*
X130017Y76033D01*
X129992Y75876D01*
X129970Y75720D01*
X129953Y75562D01*
X129939Y75405D01*
X129929Y75247D01*
X129923Y75088D01*
X129921Y74930D01*
X142621Y74422D02*
X151051Y74422D01*
X129921Y74422D02*
X119872Y74422D01*
D10*
X143860Y69469D02*
X143860Y62682D01*
X143858Y62581D01*
X143852Y62480D01*
X143842Y62379D01*
X143829Y62279D01*
X143811Y62179D01*
X143790Y62080D01*
X143764Y61982D01*
X143735Y61885D01*
X143703Y61789D01*
X143666Y61695D01*
X143626Y61602D01*
X143582Y61510D01*
X143535Y61421D01*
X143484Y61333D01*
X143430Y61247D01*
X143373Y61164D01*
X143313Y61082D01*
X143249Y61004D01*
X143183Y60927D01*
X143113Y60854D01*
X143041Y60783D01*
X142966Y60715D01*
X142888Y60650D01*
X142808Y60588D01*
X142726Y60529D01*
X142641Y60473D01*
X142554Y60421D01*
X142466Y60372D01*
X142375Y60326D01*
X142283Y60285D01*
X142189Y60246D01*
X142094Y60212D01*
X141998Y60181D01*
X141900Y60154D01*
X141802Y60130D01*
X141702Y60111D01*
X141602Y60095D01*
X141502Y60083D01*
X141401Y60075D01*
X141300Y60071D01*
X141198Y60071D01*
X141097Y60075D01*
X140996Y60083D01*
X140896Y60095D01*
X140796Y60111D01*
X140696Y60130D01*
X140598Y60154D01*
X140500Y60181D01*
X140404Y60212D01*
X140309Y60246D01*
X140215Y60285D01*
X140123Y60326D01*
X140032Y60372D01*
X139944Y60421D01*
X139857Y60473D01*
X139772Y60529D01*
X139690Y60588D01*
X139610Y60650D01*
X139532Y60715D01*
X139457Y60783D01*
X139385Y60854D01*
X139315Y60927D01*
X139249Y61004D01*
X139185Y61082D01*
X139125Y61164D01*
X139068Y61247D01*
X139014Y61333D01*
X138963Y61421D01*
X138916Y61510D01*
X138872Y61602D01*
X138832Y61695D01*
X138795Y61789D01*
X138763Y61885D01*
X138734Y61982D01*
X138708Y62080D01*
X138687Y62179D01*
X138669Y62279D01*
X138656Y62379D01*
X138646Y62480D01*
X138640Y62581D01*
X138638Y62682D01*
X138639Y62682D02*
X138639Y69469D01*
X132323Y69469D02*
X134411Y62159D01*
X129190Y62159D01*
X130756Y64248D02*
X130756Y60071D01*
X165790Y15471D02*
X167878Y15471D01*
X167967Y15473D01*
X168055Y15479D01*
X168143Y15488D01*
X168231Y15501D01*
X168318Y15518D01*
X168404Y15538D01*
X168489Y15563D01*
X168574Y15590D01*
X168657Y15622D01*
X168738Y15656D01*
X168818Y15695D01*
X168896Y15736D01*
X168973Y15781D01*
X169047Y15829D01*
X169120Y15880D01*
X169190Y15934D01*
X169257Y15992D01*
X169323Y16052D01*
X169385Y16114D01*
X169445Y16180D01*
X169503Y16247D01*
X169557Y16317D01*
X169608Y16390D01*
X169656Y16464D01*
X169701Y16541D01*
X169742Y16619D01*
X169781Y16699D01*
X169815Y16780D01*
X169847Y16863D01*
X169874Y16948D01*
X169899Y17033D01*
X169919Y17119D01*
X169936Y17206D01*
X169949Y17294D01*
X169958Y17382D01*
X169964Y17470D01*
X169966Y17559D01*
X169967Y17559D02*
X169967Y22781D01*
X169966Y22781D02*
X169964Y22870D01*
X169958Y22958D01*
X169949Y23046D01*
X169936Y23134D01*
X169919Y23221D01*
X169899Y23307D01*
X169874Y23392D01*
X169847Y23477D01*
X169815Y23560D01*
X169781Y23641D01*
X169742Y23721D01*
X169701Y23799D01*
X169656Y23876D01*
X169608Y23950D01*
X169557Y24023D01*
X169503Y24093D01*
X169445Y24160D01*
X169385Y24226D01*
X169323Y24288D01*
X169257Y24348D01*
X169190Y24406D01*
X169120Y24460D01*
X169047Y24511D01*
X168973Y24559D01*
X168896Y24604D01*
X168818Y24645D01*
X168738Y24684D01*
X168657Y24718D01*
X168574Y24750D01*
X168489Y24777D01*
X168404Y24802D01*
X168318Y24822D01*
X168231Y24839D01*
X168143Y24852D01*
X168055Y24861D01*
X167967Y24867D01*
X167878Y24869D01*
X165790Y24869D01*
X162321Y22781D02*
X159711Y24869D01*
X159711Y15471D01*
X162321Y15471D02*
X157100Y15471D01*
X153177Y15471D02*
X150044Y15471D01*
X149955Y15473D01*
X149867Y15479D01*
X149779Y15488D01*
X149691Y15501D01*
X149604Y15518D01*
X149518Y15538D01*
X149433Y15563D01*
X149348Y15590D01*
X149265Y15622D01*
X149184Y15656D01*
X149104Y15695D01*
X149026Y15736D01*
X148949Y15781D01*
X148875Y15829D01*
X148802Y15880D01*
X148732Y15934D01*
X148665Y15992D01*
X148599Y16052D01*
X148537Y16114D01*
X148477Y16180D01*
X148419Y16247D01*
X148365Y16317D01*
X148314Y16390D01*
X148266Y16464D01*
X148221Y16541D01*
X148180Y16619D01*
X148141Y16699D01*
X148107Y16780D01*
X148075Y16863D01*
X148048Y16948D01*
X148023Y17033D01*
X148003Y17119D01*
X147986Y17206D01*
X147973Y17294D01*
X147964Y17382D01*
X147958Y17470D01*
X147956Y17559D01*
X147956Y18604D01*
X147958Y18693D01*
X147964Y18781D01*
X147973Y18869D01*
X147986Y18957D01*
X148003Y19044D01*
X148023Y19130D01*
X148048Y19215D01*
X148075Y19300D01*
X148107Y19383D01*
X148141Y19464D01*
X148180Y19544D01*
X148221Y19622D01*
X148266Y19699D01*
X148314Y19773D01*
X148365Y19846D01*
X148419Y19916D01*
X148477Y19983D01*
X148537Y20049D01*
X148599Y20111D01*
X148665Y20171D01*
X148732Y20229D01*
X148802Y20283D01*
X148875Y20334D01*
X148949Y20382D01*
X149026Y20427D01*
X149104Y20468D01*
X149184Y20507D01*
X149265Y20541D01*
X149348Y20573D01*
X149433Y20600D01*
X149518Y20625D01*
X149604Y20645D01*
X149691Y20662D01*
X149779Y20675D01*
X149867Y20684D01*
X149955Y20690D01*
X150044Y20692D01*
X153177Y20692D01*
X153177Y24869D01*
X147956Y24869D01*
X117078Y15471D02*
X114990Y15471D01*
X117078Y15471D02*
X117167Y15473D01*
X117255Y15479D01*
X117343Y15488D01*
X117431Y15501D01*
X117518Y15518D01*
X117604Y15538D01*
X117689Y15563D01*
X117774Y15590D01*
X117857Y15622D01*
X117938Y15656D01*
X118018Y15695D01*
X118096Y15736D01*
X118173Y15781D01*
X118247Y15829D01*
X118320Y15880D01*
X118390Y15934D01*
X118457Y15992D01*
X118523Y16052D01*
X118585Y16114D01*
X118645Y16180D01*
X118703Y16247D01*
X118757Y16317D01*
X118808Y16390D01*
X118856Y16464D01*
X118901Y16541D01*
X118942Y16619D01*
X118981Y16699D01*
X119015Y16780D01*
X119047Y16863D01*
X119074Y16948D01*
X119099Y17033D01*
X119119Y17119D01*
X119136Y17206D01*
X119149Y17294D01*
X119158Y17382D01*
X119164Y17470D01*
X119166Y17559D01*
X119167Y17559D02*
X119167Y22781D01*
X119166Y22781D02*
X119164Y22870D01*
X119158Y22958D01*
X119149Y23046D01*
X119136Y23134D01*
X119119Y23221D01*
X119099Y23307D01*
X119074Y23392D01*
X119047Y23477D01*
X119015Y23560D01*
X118981Y23641D01*
X118942Y23721D01*
X118901Y23799D01*
X118856Y23876D01*
X118808Y23950D01*
X118757Y24023D01*
X118703Y24093D01*
X118645Y24160D01*
X118585Y24226D01*
X118523Y24288D01*
X118457Y24348D01*
X118390Y24406D01*
X118320Y24460D01*
X118247Y24511D01*
X118173Y24559D01*
X118096Y24604D01*
X118018Y24645D01*
X117938Y24684D01*
X117857Y24718D01*
X117774Y24750D01*
X117689Y24777D01*
X117604Y24802D01*
X117518Y24822D01*
X117431Y24839D01*
X117343Y24852D01*
X117255Y24861D01*
X117167Y24867D01*
X117078Y24869D01*
X114990Y24869D01*
X111521Y22781D02*
X108911Y24869D01*
X108911Y15471D01*
X111521Y15471D02*
X106300Y15471D01*
X102377Y20692D02*
X99244Y20692D01*
X99155Y20690D01*
X99067Y20684D01*
X98979Y20675D01*
X98891Y20662D01*
X98804Y20645D01*
X98718Y20625D01*
X98633Y20600D01*
X98548Y20573D01*
X98465Y20541D01*
X98384Y20507D01*
X98304Y20468D01*
X98226Y20427D01*
X98149Y20382D01*
X98075Y20334D01*
X98002Y20283D01*
X97932Y20229D01*
X97865Y20171D01*
X97799Y20111D01*
X97737Y20049D01*
X97677Y19983D01*
X97619Y19916D01*
X97565Y19846D01*
X97514Y19773D01*
X97466Y19699D01*
X97421Y19622D01*
X97380Y19544D01*
X97341Y19464D01*
X97307Y19383D01*
X97275Y19300D01*
X97248Y19215D01*
X97223Y19130D01*
X97203Y19044D01*
X97186Y18957D01*
X97173Y18869D01*
X97164Y18781D01*
X97158Y18693D01*
X97156Y18604D01*
X97156Y18082D01*
X97158Y17981D01*
X97164Y17880D01*
X97174Y17779D01*
X97187Y17679D01*
X97205Y17579D01*
X97226Y17480D01*
X97252Y17382D01*
X97281Y17285D01*
X97313Y17189D01*
X97350Y17095D01*
X97390Y17002D01*
X97434Y16910D01*
X97481Y16821D01*
X97532Y16733D01*
X97586Y16647D01*
X97643Y16564D01*
X97703Y16482D01*
X97767Y16404D01*
X97833Y16327D01*
X97903Y16254D01*
X97975Y16183D01*
X98050Y16115D01*
X98128Y16050D01*
X98208Y15988D01*
X98290Y15929D01*
X98375Y15873D01*
X98462Y15821D01*
X98550Y15772D01*
X98641Y15726D01*
X98733Y15685D01*
X98827Y15646D01*
X98922Y15612D01*
X99018Y15581D01*
X99116Y15554D01*
X99214Y15530D01*
X99314Y15511D01*
X99414Y15495D01*
X99514Y15483D01*
X99615Y15475D01*
X99716Y15471D01*
X99818Y15471D01*
X99919Y15475D01*
X100020Y15483D01*
X100120Y15495D01*
X100220Y15511D01*
X100320Y15530D01*
X100418Y15554D01*
X100516Y15581D01*
X100612Y15612D01*
X100707Y15646D01*
X100801Y15685D01*
X100893Y15726D01*
X100984Y15772D01*
X101072Y15821D01*
X101159Y15873D01*
X101244Y15929D01*
X101326Y15988D01*
X101406Y16050D01*
X101484Y16115D01*
X101559Y16183D01*
X101631Y16254D01*
X101701Y16327D01*
X101767Y16404D01*
X101831Y16482D01*
X101891Y16564D01*
X101948Y16647D01*
X102002Y16733D01*
X102053Y16821D01*
X102100Y16910D01*
X102144Y17002D01*
X102184Y17095D01*
X102221Y17189D01*
X102253Y17285D01*
X102282Y17382D01*
X102308Y17480D01*
X102329Y17579D01*
X102347Y17679D01*
X102360Y17779D01*
X102370Y17880D01*
X102376Y17981D01*
X102378Y18082D01*
X102377Y18082D02*
X102377Y20692D01*
X102375Y20818D01*
X102369Y20944D01*
X102360Y21070D01*
X102347Y21195D01*
X102329Y21320D01*
X102309Y21445D01*
X102284Y21569D01*
X102256Y21692D01*
X102224Y21814D01*
X102188Y21935D01*
X102149Y22055D01*
X102106Y22173D01*
X102059Y22290D01*
X102009Y22406D01*
X101955Y22521D01*
X101899Y22633D01*
X101838Y22744D01*
X101775Y22853D01*
X101708Y22960D01*
X101638Y23065D01*
X101564Y23168D01*
X101488Y23268D01*
X101409Y23366D01*
X101327Y23462D01*
X101241Y23555D01*
X101154Y23646D01*
X101063Y23733D01*
X100970Y23819D01*
X100874Y23901D01*
X100776Y23980D01*
X100676Y24056D01*
X100573Y24130D01*
X100468Y24200D01*
X100361Y24267D01*
X100252Y24330D01*
X100141Y24391D01*
X100029Y24447D01*
X99914Y24501D01*
X99798Y24551D01*
X99681Y24598D01*
X99563Y24641D01*
X99443Y24680D01*
X99322Y24716D01*
X99200Y24748D01*
X99077Y24776D01*
X98953Y24801D01*
X98828Y24821D01*
X98703Y24839D01*
X98578Y24852D01*
X98452Y24861D01*
X98326Y24867D01*
X98200Y24869D01*
X222631Y224156D02*
X232029Y224156D01*
X232029Y226767D01*
X232027Y226868D01*
X232021Y226969D01*
X232011Y227070D01*
X231998Y227170D01*
X231980Y227270D01*
X231959Y227369D01*
X231933Y227467D01*
X231904Y227564D01*
X231872Y227660D01*
X231835Y227754D01*
X231795Y227847D01*
X231751Y227939D01*
X231704Y228028D01*
X231653Y228116D01*
X231599Y228202D01*
X231542Y228285D01*
X231482Y228367D01*
X231418Y228445D01*
X231352Y228522D01*
X231282Y228595D01*
X231210Y228666D01*
X231135Y228734D01*
X231057Y228799D01*
X230977Y228861D01*
X230895Y228920D01*
X230810Y228976D01*
X230724Y229028D01*
X230635Y229077D01*
X230544Y229123D01*
X230452Y229164D01*
X230358Y229203D01*
X230263Y229237D01*
X230167Y229268D01*
X230069Y229295D01*
X229971Y229319D01*
X229871Y229338D01*
X229771Y229354D01*
X229671Y229366D01*
X229570Y229374D01*
X229469Y229378D01*
X229367Y229378D01*
X229266Y229374D01*
X229165Y229366D01*
X229065Y229354D01*
X228965Y229338D01*
X228865Y229319D01*
X228767Y229295D01*
X228669Y229268D01*
X228573Y229237D01*
X228478Y229203D01*
X228384Y229164D01*
X228292Y229123D01*
X228201Y229077D01*
X228113Y229028D01*
X228026Y228976D01*
X227941Y228920D01*
X227859Y228861D01*
X227779Y228799D01*
X227701Y228734D01*
X227626Y228666D01*
X227554Y228595D01*
X227484Y228522D01*
X227418Y228445D01*
X227354Y228367D01*
X227294Y228285D01*
X227237Y228202D01*
X227183Y228116D01*
X227132Y228028D01*
X227085Y227939D01*
X227041Y227847D01*
X227001Y227754D01*
X226964Y227660D01*
X226932Y227564D01*
X226903Y227467D01*
X226877Y227369D01*
X226856Y227270D01*
X226838Y227170D01*
X226825Y227070D01*
X226815Y226969D01*
X226809Y226868D01*
X226807Y226767D01*
X226808Y226767D02*
X226808Y224156D01*
X226808Y227289D02*
X222631Y229377D01*
X222631Y233243D02*
X222631Y236376D01*
X222633Y236465D01*
X222639Y236553D01*
X222648Y236641D01*
X222661Y236729D01*
X222678Y236816D01*
X222698Y236902D01*
X222723Y236987D01*
X222750Y237072D01*
X222782Y237155D01*
X222816Y237236D01*
X222855Y237316D01*
X222896Y237394D01*
X222941Y237471D01*
X222989Y237545D01*
X223040Y237618D01*
X223094Y237688D01*
X223152Y237755D01*
X223212Y237821D01*
X223274Y237883D01*
X223340Y237943D01*
X223407Y238001D01*
X223477Y238055D01*
X223550Y238106D01*
X223624Y238154D01*
X223701Y238199D01*
X223779Y238240D01*
X223859Y238279D01*
X223940Y238313D01*
X224023Y238345D01*
X224108Y238372D01*
X224193Y238397D01*
X224279Y238417D01*
X224366Y238434D01*
X224454Y238447D01*
X224542Y238456D01*
X224630Y238462D01*
X224719Y238464D01*
X225764Y238464D01*
X225853Y238462D01*
X225941Y238456D01*
X226029Y238447D01*
X226117Y238434D01*
X226204Y238417D01*
X226290Y238397D01*
X226375Y238372D01*
X226460Y238345D01*
X226543Y238313D01*
X226624Y238279D01*
X226704Y238240D01*
X226782Y238199D01*
X226859Y238154D01*
X226933Y238106D01*
X227006Y238055D01*
X227076Y238001D01*
X227143Y237943D01*
X227209Y237883D01*
X227271Y237821D01*
X227331Y237755D01*
X227389Y237688D01*
X227443Y237618D01*
X227494Y237545D01*
X227542Y237471D01*
X227587Y237394D01*
X227628Y237316D01*
X227667Y237236D01*
X227701Y237155D01*
X227733Y237072D01*
X227760Y236987D01*
X227785Y236902D01*
X227805Y236816D01*
X227822Y236729D01*
X227835Y236641D01*
X227844Y236553D01*
X227850Y236465D01*
X227852Y236376D01*
X227852Y233243D01*
X232029Y233243D01*
X232029Y238464D01*
M02*
