G04 EAGLE Gerber RS-274X export*
G75*
%MOMM*%
%FSLAX34Y34*%
%LPD*%
%INSolderpaste Top*%
%IPPOS*%
%AMOC8*
5,1,8,0,0,1.08239X$1,22.5*%
G01*
%ADD10R,2.000000X5.500000*%
%ADD11R,1.500000X0.500000*%
%ADD12R,0.500000X1.500000*%
%ADD13R,3.000000X1.600000*%
%ADD14R,1.050000X1.080000*%
%ADD15R,1.000000X1.100000*%
%ADD16R,5.500000X2.000000*%
%ADD17R,0.800000X0.800000*%
%ADD18R,1.100000X1.000000*%


D10*
X234950Y85850D03*
X234950Y180850D03*
D11*
X75350Y167000D03*
X75350Y159000D03*
X75350Y151000D03*
X75350Y143000D03*
X75350Y135000D03*
X75350Y127000D03*
X75350Y119000D03*
X75350Y111000D03*
X75350Y103000D03*
X75350Y95000D03*
X75350Y87000D03*
D12*
X93350Y69000D03*
X101350Y69000D03*
X109350Y69000D03*
X117350Y69000D03*
X125350Y69000D03*
X133350Y69000D03*
X141350Y69000D03*
X149350Y69000D03*
X157350Y69000D03*
X165350Y69000D03*
X173350Y69000D03*
D11*
X191350Y87000D03*
X191350Y95000D03*
X191350Y103000D03*
X191350Y111000D03*
X191350Y119000D03*
X191350Y127000D03*
X191350Y135000D03*
X191350Y143000D03*
X191350Y151000D03*
X191350Y159000D03*
X191350Y167000D03*
D12*
X173350Y185000D03*
X165350Y185000D03*
X157350Y185000D03*
X149350Y185000D03*
X141350Y185000D03*
X133350Y185000D03*
X125350Y185000D03*
X117350Y185000D03*
X109350Y185000D03*
X101350Y185000D03*
X93350Y185000D03*
D13*
X79150Y215900D03*
X35150Y215900D03*
D14*
X277000Y158750D03*
X294500Y158750D03*
X277000Y95250D03*
X294500Y95250D03*
D15*
X294250Y114300D03*
X277250Y114300D03*
X294250Y139700D03*
X277250Y139700D03*
D16*
X85850Y31750D03*
X180850Y31750D03*
D17*
X292100Y62350D03*
X292100Y77350D03*
D18*
X276225Y61350D03*
X276225Y78350D03*
M02*
