G04 EAGLE Gerber RS-274X export*
G75*
%MOMM*%
%FSLAX34Y34*%
%LPD*%
%INSoldermask Bottom*%
%IPPOS*%
%AMOC8*
5,1,8,0,0,1.08239X$1,22.5*%
G01*
%ADD10R,1.529600X1.529600*%
%ADD11C,1.529600*%
%ADD12C,2.401600*%
%ADD13C,1.625600*%
%ADD14R,1.201600X1.101600*%
%ADD15R,1.701600X1.401600*%
%ADD16R,1.181600X1.151600*%
%ADD17R,0.381600X2.133600*%
%ADD18R,2.133600X0.381600*%
%ADD19R,1.727200X0.609600*%
%ADD20R,1.301600X0.701600*%
%ADD21R,1.151600X1.181600*%
%ADD22P,1.759533X8X22.500000*%


D10*
X322250Y92000D03*
D11*
X322250Y117000D03*
X322250Y137000D03*
X322250Y162000D03*
D12*
X349350Y61300D03*
X349350Y192700D03*
D13*
X234950Y39370D02*
X234950Y24130D01*
X260350Y24130D02*
X260350Y39370D01*
X285750Y39370D02*
X285750Y24130D01*
D14*
X53975Y51825D03*
X53975Y68825D03*
D15*
X203200Y216375D03*
X203200Y196375D03*
X53975Y104300D03*
X53975Y124300D03*
D16*
X76200Y123050D03*
X76200Y105550D03*
X190500Y84950D03*
X190500Y67450D03*
X76200Y69075D03*
X76200Y51575D03*
D17*
X252450Y92042D03*
X247450Y92042D03*
X242450Y92042D03*
X237450Y92042D03*
X232450Y92042D03*
X227450Y92042D03*
X222450Y92042D03*
X217450Y92042D03*
D18*
X199992Y109500D03*
X199992Y114500D03*
X199992Y119500D03*
X199992Y124500D03*
X199992Y129500D03*
X199992Y134500D03*
X199992Y139500D03*
X199992Y144500D03*
D17*
X217450Y161958D03*
X222450Y161958D03*
X227450Y161958D03*
X232450Y161958D03*
X237450Y161958D03*
X242450Y161958D03*
X247450Y161958D03*
X252450Y161958D03*
D18*
X269908Y144500D03*
X269908Y139500D03*
X269908Y134500D03*
X269908Y129500D03*
X269908Y124500D03*
X269908Y119500D03*
X269908Y114500D03*
X269908Y109500D03*
D19*
X169037Y215875D03*
X169037Y206375D03*
X169037Y196875D03*
X142113Y196875D03*
X142113Y215875D03*
D16*
X98425Y215125D03*
X98425Y197625D03*
D15*
X120650Y216375D03*
X120650Y196375D03*
D16*
X247650Y197625D03*
X247650Y215125D03*
D20*
X108525Y82550D03*
X108525Y95250D03*
X108525Y107950D03*
X108525Y120650D03*
X108525Y133350D03*
X108525Y146050D03*
X108525Y158750D03*
X108525Y171450D03*
X164525Y171450D03*
X164525Y158750D03*
X164525Y146050D03*
X164525Y133350D03*
X164525Y120650D03*
X164525Y107950D03*
X164525Y95250D03*
X164525Y82550D03*
D21*
X167500Y31750D03*
X150000Y31750D03*
X99200Y31750D03*
X116700Y31750D03*
D14*
X228600Y197875D03*
X228600Y214875D03*
D13*
X33020Y82550D02*
X17780Y82550D01*
X17780Y107950D02*
X33020Y107950D01*
X33020Y133350D02*
X17780Y133350D01*
D22*
X25400Y171450D03*
M02*
